<svg width="122" height="90" viewBox="0 0 122 90" fill="none" xmlns="http://www.w3.org/2000/svg">
<rect x="1" y="61" width="120" height="28" fill="white"/>
<rect x="1" y="61" width="120" height="28" stroke="black" stroke-width="2"/>
<path d="M28.6455 80V71.2568H23.3682V80H22.1309V70.1357H29.8623V80H28.6455ZM35.3994 79.0703C36.0967 79.0703 36.6344 78.8288 37.0127 78.3457C37.391 77.8672 37.5801 77.1904 37.5801 76.3154C37.5801 75.4404 37.391 74.7614 37.0127 74.2783C36.6344 73.7998 36.0967 73.5605 35.3994 73.5605C34.7021 73.5605 34.1644 73.7998 33.7861 74.2783C33.4079 74.7614 33.2188 75.4404 33.2188 76.3154C33.2188 77.1904 33.4079 77.8672 33.7861 78.3457C34.1644 78.8288 34.7021 79.0703 35.3994 79.0703ZM35.3994 80.1299C34.3512 80.1299 33.5218 79.7904 32.9111 79.1113C32.305 78.4277 32.002 77.4958 32.002 76.3154C32.002 75.1305 32.305 74.1986 32.9111 73.5195C33.5173 72.8405 34.3467 72.501 35.3994 72.501C36.4521 72.501 37.2816 72.8405 37.8877 73.5195C38.4938 74.1986 38.7969 75.1305 38.7969 76.3154C38.7969 77.4958 38.4938 78.4277 37.8877 79.1113C37.277 79.7904 36.4476 80.1299 35.3994 80.1299ZM42.2695 75.7139L45.1885 72.6309H46.6172L43.2402 76.1035L46.7471 80H45.2227L42.2695 76.6436H41.9482V80H40.7725V72.6309H41.9482V75.7139H42.2695ZM48.8867 82.6729C48.6999 82.6729 48.5244 82.6592 48.3604 82.6318V81.627C48.4788 81.6497 48.6429 81.6611 48.8525 81.6611C49.1898 81.6611 49.4609 81.57 49.666 81.3877C49.8711 81.2008 50.0511 80.8864 50.2061 80.4443L50.3428 80.0068L47.6152 72.6309H48.8867L50.9102 78.6943H51.0195L53.0361 72.6309H54.2871L51.4092 80.4512C51.0947 81.3034 50.7598 81.8867 50.4043 82.2012C50.0443 82.5156 49.5384 82.6729 48.8867 82.6729ZM60.8428 73.6152H57.165V80H55.9893V72.6309H62.0186V80H60.8428V73.6152ZM66.6328 79.0977C67.2389 79.0977 67.7402 78.9222 68.1367 78.5713C68.5378 78.2204 68.7383 77.7806 68.7383 77.252V76.5752L66.7559 76.7051C65.6803 76.778 65.1426 77.179 65.1426 77.9082C65.1426 78.2773 65.2839 78.569 65.5664 78.7832C65.8398 78.9928 66.1953 79.0977 66.6328 79.0977ZM66.4141 80.1299C65.6895 80.1299 65.097 79.9316 64.6367 79.5352C64.1628 79.1341 63.9258 78.6009 63.9258 77.9355C63.9258 77.2793 64.1582 76.7643 64.623 76.3906C65.0879 76.0169 65.751 75.805 66.6123 75.7549L68.7383 75.625V74.9551C68.7383 74.0163 68.1823 73.5469 67.0703 73.5469C66.1361 73.5469 65.5824 73.8522 65.4092 74.4629H64.2197C64.2972 73.875 64.6025 73.401 65.1357 73.041C65.6644 72.681 66.3229 72.501 67.1113 72.501C68.0046 72.501 68.6973 72.7174 69.1895 73.1504C69.6725 73.5833 69.9141 74.1849 69.9141 74.9551V80H68.793V78.9131H68.6836C68.1914 79.7243 67.4349 80.1299 66.4141 80.1299ZM77.5156 73.6152H75.123V80H73.9473V73.6152H71.5547V72.6309H77.5156V73.6152ZM81.9043 73.54C81.3164 73.54 80.8333 73.7383 80.4551 74.1348C80.0768 74.5312 79.8649 75.0553 79.8193 75.707H83.8799C83.8662 75.0553 83.6794 74.5312 83.3193 74.1348C82.9593 73.7383 82.4876 73.54 81.9043 73.54ZM85.0215 78.0928C84.8438 78.7308 84.4837 79.2275 83.9414 79.583C83.3945 79.9476 82.7201 80.1299 81.918 80.1299C80.8971 80.1299 80.0882 79.7858 79.4912 79.0977C78.8942 78.4141 78.5957 77.4889 78.5957 76.3223C78.5957 75.1602 78.8965 74.2327 79.498 73.54C80.0996 72.8473 80.9062 72.501 81.918 72.501C82.9115 72.501 83.693 72.8314 84.2627 73.4922C84.8324 74.153 85.1172 75.0576 85.1172 76.2061V76.6572H79.8193V76.7119C79.8512 77.4411 80.0563 78.0199 80.4346 78.4482C80.8174 78.8766 81.321 79.0908 81.9453 79.0908C82.8978 79.0908 83.5312 78.7581 83.8457 78.0928H85.0215ZM88.8633 76.7666C88.7812 77.8604 88.5921 78.6624 88.2959 79.1729C87.9541 79.7653 87.4209 80.0615 86.6963 80.0615C86.5277 80.0615 86.3841 80.0365 86.2656 79.9863V78.9062C86.375 78.9427 86.498 78.9609 86.6348 78.9609C86.9811 78.9609 87.2454 78.7604 87.4277 78.3594C87.5872 78.0085 87.6921 77.4684 87.7422 76.7393L88.0293 72.6309H92.8486V80H91.6729V73.6152H89.0957L88.8633 76.7666ZM96.3623 75.9805V79.0156H97.75C98.2331 79.0156 98.6204 78.8766 98.9121 78.5986C99.1992 78.3252 99.3428 77.9583 99.3428 77.498C99.3428 77.0378 99.1969 76.6686 98.9053 76.3906C98.6182 76.1172 98.2331 75.9805 97.75 75.9805H96.3623ZM95.1865 72.6309H96.3623V74.9961H97.75C98.5931 74.9961 99.2653 75.2217 99.7666 75.6729C100.268 76.124 100.519 76.7324 100.519 77.498C100.519 78.2637 100.268 78.8721 99.7666 79.3232C99.2653 79.7744 98.5931 80 97.75 80H95.1865V72.6309Z" fill="black"/>
<path d="M1 7C0.447715 7 0 7.44772 0 8C0 8.55228 0.447715 9 1 9L1 7ZM121.707 8.70711C122.098 8.31658 122.098 7.68342 121.707 7.29289L115.343 0.928932C114.953 0.538408 114.319 0.538408 113.929 0.928932C113.538 1.31946 113.538 1.95262 113.929 2.34315L119.586 8L113.929 13.6569C113.538 14.0474 113.538 14.6805 113.929 15.0711C114.319 15.4616 114.953 15.4616 115.343 15.0711L121.707 8.70711ZM1 9L121 9V7L1 7L1 9Z" fill="black"/>
<path d="M121 27C121.552 27 122 27.4477 122 28C122 28.5523 121.552 29 121 29V27ZM0.292885 28.7071C-0.097641 28.3166 -0.097641 27.6834 0.292885 27.2929L6.65685 20.9289C7.04737 20.5384 7.68053 20.5384 8.07106 20.9289C8.46159 21.3195 8.46159 21.9526 8.07106 22.3431L2.41421 28L8.07106 33.6569C8.46159 34.0474 8.46159 34.6805 8.07106 35.0711C7.68053 35.4616 7.04737 35.4616 6.65685 35.0711L0.292885 28.7071ZM121 29L0.999992 29V27L121 27V29Z" fill="black"/>
</svg>
