<svg width="407" height="376" viewBox="0 0 407 376" fill="none" xmlns="http://www.w3.org/2000/svg">
<path d="M130.998 19H124.67V4.9082H130.891C132.212 4.9082 133.26 5.22396 134.035 5.85547C134.81 6.48698 135.197 7.3431 135.197 8.42383C135.197 9.19206 134.943 9.86589 134.436 10.4453C133.934 11.0247 133.306 11.3698 132.551 11.4805V11.5586C133.514 11.6302 134.309 11.985 134.934 12.623C135.559 13.2611 135.871 14.0423 135.871 14.9668C135.871 16.2103 135.435 17.1934 134.562 17.916C133.69 18.6387 132.502 19 130.998 19ZM127.619 7.10547V10.7676H129.826C130.614 10.7676 131.223 10.6048 131.652 10.2793C132.082 9.94727 132.297 9.48177 132.297 8.88281C132.297 8.31641 132.108 7.88021 131.73 7.57422C131.353 7.26172 130.819 7.10547 130.129 7.10547H127.619ZM127.619 16.8027H130.246C131.099 16.8027 131.747 16.627 132.189 16.2754C132.639 15.9173 132.863 15.403 132.863 14.7324C132.863 14.0749 132.632 13.5736 132.17 13.2285C131.714 12.8835 131.05 12.7109 130.178 12.7109H127.619V16.8027ZM137.219 9.14648C137.219 7.81185 137.701 6.72135 138.664 5.875C139.634 5.02214 140.887 4.5957 142.424 4.5957C143.902 4.5957 145.106 4.97982 146.037 5.74805C146.968 6.50977 147.434 7.48307 147.434 8.66797C147.434 9.09115 147.368 9.5013 147.238 9.89844C147.115 10.2891 146.913 10.6829 146.633 11.0801C146.359 11.4707 146.083 11.8255 145.803 12.1445C145.523 12.457 145.158 12.8379 144.709 13.2871L141.271 16.5977V16.6562H147.629V19H137.385V17.0176L142.697 11.9004C143.413 11.1842 143.902 10.6081 144.162 10.1719C144.429 9.73568 144.562 9.27344 144.562 8.78516C144.562 8.2513 144.351 7.80208 143.928 7.4375C143.505 7.07292 142.971 6.89062 142.326 6.89062C141.643 6.89062 141.076 7.10547 140.627 7.53516C140.178 7.95833 139.953 8.49544 139.953 9.14648V9.19531H137.219V9.14648ZM155.959 19H149.631V4.9082H155.852C157.173 4.9082 158.221 5.22396 158.996 5.85547C159.771 6.48698 160.158 7.3431 160.158 8.42383C160.158 9.19206 159.904 9.86589 159.396 10.4453C158.895 11.0247 158.267 11.3698 157.512 11.4805V11.5586C158.475 11.6302 159.27 11.985 159.895 12.623C160.52 13.2611 160.832 14.0423 160.832 14.9668C160.832 16.2103 160.396 17.1934 159.523 17.916C158.651 18.6387 157.463 19 155.959 19ZM152.58 7.10547V10.7676H154.787C155.575 10.7676 156.184 10.6048 156.613 10.2793C157.043 9.94727 157.258 9.48177 157.258 8.88281C157.258 8.31641 157.069 7.88021 156.691 7.57422C156.314 7.26172 155.78 7.10547 155.09 7.10547H152.58ZM152.58 16.8027H155.207C156.06 16.8027 156.708 16.627 157.15 16.2754C157.6 15.9173 157.824 15.403 157.824 14.7324C157.824 14.0749 157.593 13.5736 157.131 13.2285C156.675 12.8835 156.011 12.7109 155.139 12.7109H152.58V16.8027ZM168.977 14.5957H162.561V12.1055H168.977V14.5957ZM173.42 15.3672C173.55 15.8685 173.801 16.2559 174.172 16.5293C174.549 16.7962 175.018 16.9297 175.578 16.9297C176.223 16.9297 176.76 16.7083 177.189 16.2656C177.619 15.8229 177.863 15.2077 177.922 14.4199H173.996V12.5449H177.883C177.785 11.8548 177.528 11.3112 177.111 10.9141C176.695 10.5104 176.187 10.3086 175.588 10.3086C175.028 10.3086 174.559 10.4518 174.182 10.7383C173.811 11.0247 173.563 11.4121 173.439 11.9004H170.773C170.91 10.7611 171.411 9.83659 172.277 9.12695C173.15 8.41732 174.266 8.0625 175.627 8.0625C177.209 8.0625 178.465 8.5638 179.396 9.56641C180.334 10.5625 180.803 11.9134 180.803 13.6191C180.803 15.3444 180.334 16.7051 179.396 17.7012C178.465 18.6908 177.202 19.1855 175.607 19.1855C174.247 19.1855 173.133 18.8438 172.268 18.1602C171.402 17.4701 170.9 16.5391 170.764 15.3672H173.42ZM188.02 13.2383L192.609 19H189.162L185.451 14.3516H185.373V19H182.531V8.24805H185.373V12.6035H185.451L189.104 8.24805H192.365L188.02 13.2383ZM198.605 19.1855C196.971 19.1855 195.679 18.6908 194.729 17.7012C193.778 16.7116 193.303 15.3509 193.303 13.6191C193.303 11.9069 193.781 10.5527 194.738 9.55664C195.695 8.56055 196.984 8.0625 198.605 8.0625C200.233 8.0625 201.522 8.56055 202.473 9.55664C203.43 10.5462 203.908 11.9004 203.908 13.6191C203.908 15.3574 203.433 16.7214 202.482 17.7109C201.538 18.694 200.246 19.1855 198.605 19.1855ZM196.828 16.1094C197.258 16.6953 197.85 16.9883 198.605 16.9883C199.361 16.9883 199.95 16.6953 200.373 16.1094C200.796 15.5169 201.008 14.6868 201.008 13.6191C201.008 12.5645 200.793 11.7409 200.363 11.1484C199.94 10.5495 199.354 10.25 198.605 10.25C197.85 10.25 197.258 10.5495 196.828 11.1484C196.405 11.7409 196.193 12.5645 196.193 13.6191C196.193 14.6868 196.405 15.5169 196.828 16.1094ZM215.266 11.9004H212.6C212.476 11.4121 212.232 11.0247 211.867 10.7383C211.503 10.4518 211.044 10.3086 210.49 10.3086C209.755 10.3086 209.172 10.6048 208.742 11.1973C208.312 11.7832 208.098 12.5905 208.098 13.6191C208.098 14.6608 208.312 15.4746 208.742 16.0605C209.172 16.64 209.758 16.9297 210.5 16.9297C211.053 16.9297 211.512 16.7962 211.877 16.5293C212.242 16.2559 212.489 15.8652 212.619 15.3574H215.275C215.139 16.5358 214.641 17.4701 213.781 18.1602C212.922 18.8438 211.818 19.1855 210.471 19.1855C208.863 19.1855 207.587 18.6908 206.643 17.7012C205.705 16.7051 205.236 15.3444 205.236 13.6191C205.236 11.9199 205.705 10.569 206.643 9.56641C207.587 8.5638 208.856 8.0625 210.451 8.0625C211.799 8.0625 212.902 8.41732 213.762 9.12695C214.628 9.83659 215.129 10.7611 215.266 11.9004ZM219.699 19H216.906V8.24805H219.699V15.0547H219.777L224.133 8.24805H226.926V19H224.133V12.1152H224.055L219.699 19ZM238.684 11.9004H236.018C235.894 11.4121 235.65 11.0247 235.285 10.7383C234.921 10.4518 234.462 10.3086 233.908 10.3086C233.173 10.3086 232.59 10.6048 232.16 11.1973C231.73 11.7832 231.516 12.5905 231.516 13.6191C231.516 14.6608 231.73 15.4746 232.16 16.0605C232.59 16.64 233.176 16.9297 233.918 16.9297C234.471 16.9297 234.93 16.7962 235.295 16.5293C235.66 16.2559 235.907 15.8652 236.037 15.3574H238.693C238.557 16.5358 238.059 17.4701 237.199 18.1602C236.34 18.8438 235.236 19.1855 233.889 19.1855C232.281 19.1855 231.005 18.6908 230.061 17.7012C229.123 16.7051 228.654 15.3444 228.654 13.6191C228.654 11.9199 229.123 10.569 230.061 9.56641C231.005 8.5638 232.274 8.0625 233.869 8.0625C235.217 8.0625 236.32 8.41732 237.18 9.12695C238.046 9.83659 238.547 10.7611 238.684 11.9004ZM248.889 8.24805V10.4062H245.666V19H242.824V10.4062H239.602V8.24805H248.889ZM255.1 10.1914C254.449 10.1914 253.905 10.4062 253.469 10.8359C253.039 11.2656 252.798 11.8255 252.746 12.5156H257.385C257.359 11.8125 257.137 11.2493 256.721 10.8262C256.304 10.403 255.764 10.1914 255.1 10.1914ZM257.424 15.7188H260.051C259.895 16.7604 259.37 17.6003 258.479 18.2383C257.587 18.8698 256.486 19.1855 255.178 19.1855C253.544 19.1855 252.255 18.694 251.311 17.7109C250.373 16.7279 249.904 15.3802 249.904 13.668C249.904 11.9557 250.37 10.5951 251.301 9.58594C252.238 8.57031 253.495 8.0625 255.07 8.0625C256.62 8.0625 257.85 8.54427 258.762 9.50781C259.68 10.4714 260.139 11.7702 260.139 13.4043V14.2832H252.717V14.459C252.717 15.2337 252.948 15.862 253.41 16.3438C253.872 16.819 254.478 17.0566 255.227 17.0566C255.767 17.0566 256.232 16.9395 256.623 16.7051C257.02 16.4642 257.287 16.1354 257.424 15.7188ZM264.543 19H261.867V8.24805H265.549L268.43 15.3574H268.508L271.379 8.24805H275.021V19H272.336V11.7832H272.258L269.436 18.4141H267.453L264.621 11.7832H264.543V19ZM281.271 17.0469C281.942 17.0469 282.505 16.8613 282.961 16.4902C283.417 16.1126 283.645 15.6341 283.645 15.0547V14.2637L281.389 14.4199C280.796 14.459 280.344 14.5924 280.031 14.8203C279.719 15.0482 279.562 15.3607 279.562 15.7578C279.562 16.1549 279.715 16.4707 280.021 16.7051C280.334 16.9329 280.751 17.0469 281.271 17.0469ZM280.344 19.127C279.296 19.127 278.43 18.8275 277.746 18.2285C277.062 17.6296 276.721 16.8548 276.721 15.9043C276.721 14.9342 277.082 14.1758 277.805 13.6289C278.527 13.082 279.579 12.7663 280.959 12.6816L283.645 12.5156V11.8027C283.645 11.2884 283.479 10.8945 283.146 10.6211C282.814 10.3411 282.352 10.2012 281.76 10.2012C281.252 10.2012 280.826 10.3249 280.48 10.5723C280.142 10.8132 279.937 11.1322 279.865 11.5293H277.258C277.297 10.5007 277.74 9.66732 278.586 9.0293C279.439 8.38477 280.536 8.0625 281.877 8.0625C283.257 8.0625 284.364 8.38802 285.197 9.03906C286.031 9.6901 286.447 10.5527 286.447 11.627V19H283.693V17.3398H283.635C283.348 17.8932 282.902 18.3294 282.297 18.6484C281.698 18.9674 281.047 19.127 280.344 19.127ZM110.383 43.2344C108.638 43.2344 107.3 42.6875 106.369 41.5938C105.438 40.5 104.973 38.9049 104.973 36.8086C104.973 35.2917 105.096 33.9928 105.344 32.9121C105.591 31.8249 105.965 30.9395 106.467 30.2559C106.975 29.5723 107.593 29.0645 108.322 28.7324C109.051 28.4004 109.917 28.2181 110.92 28.1855L112.141 28.1465C112.766 28.1204 113.352 28.0618 113.898 27.9707C114.445 27.8796 114.803 27.7884 114.973 27.6973V29.9238C114.868 30.015 114.566 30.1126 114.064 30.2168C113.57 30.3145 112.99 30.373 112.326 30.3926L111.164 30.4316C110.493 30.4512 109.924 30.5488 109.455 30.7246C108.993 30.8939 108.605 31.1576 108.293 31.5156C107.987 31.8672 107.746 32.2904 107.57 32.7852C107.401 33.2799 107.271 33.8952 107.18 34.6309H107.258C107.961 33.2897 109.172 32.6191 110.891 32.6191C112.342 32.6191 113.501 33.0814 114.367 34.0059C115.24 34.9303 115.676 36.1771 115.676 37.7461C115.676 39.4388 115.201 40.7767 114.25 41.7598C113.306 42.7428 112.017 43.2344 110.383 43.2344ZM108.527 40.1582C108.957 40.7051 109.556 40.9785 110.324 40.9785C111.092 40.9785 111.688 40.7051 112.111 40.1582C112.541 39.6048 112.756 38.8236 112.756 37.8145C112.756 36.8509 112.541 36.1022 112.111 35.5684C111.688 35.028 111.092 34.7578 110.324 34.7578C109.562 34.7578 108.967 35.028 108.537 35.5684C108.107 36.1022 107.893 36.8509 107.893 37.8145C107.893 38.8236 108.104 39.6048 108.527 40.1582ZM118.684 46.9258C118.104 46.9258 117.743 46.9128 117.6 46.8867V44.6797C117.697 44.6992 117.912 44.709 118.244 44.709C118.785 44.709 119.208 44.6081 119.514 44.4062C119.826 44.2109 120.038 43.9017 120.148 43.4785L120.246 43.0684L116.477 32.248H119.602L121.926 40.6855H121.984L124.318 32.248H127.326L123.605 43.2148C123.15 44.582 122.551 45.5423 121.809 46.0957C121.073 46.6491 120.031 46.9258 118.684 46.9258ZM135.705 40.832V34.3965H132.424L132.18 37.873C132.082 39.1491 131.815 40.1094 131.379 40.7539V40.832H135.705ZM130.236 45.7832H127.639V40.832H128.469C129.146 40.4544 129.543 39.4095 129.66 37.6973L130.012 32.248H138.537V40.832H140.139V45.7832H137.541V43H130.236V45.7832ZM146.271 34.1914C145.62 34.1914 145.077 34.4062 144.641 34.8359C144.211 35.2656 143.97 35.8255 143.918 36.5156H148.557C148.531 35.8125 148.309 35.2493 147.893 34.8262C147.476 34.403 146.936 34.1914 146.271 34.1914ZM148.596 39.7188H151.223C151.066 40.7604 150.542 41.6003 149.65 42.2383C148.758 42.8698 147.658 43.1855 146.35 43.1855C144.715 43.1855 143.426 42.694 142.482 41.7109C141.545 40.7279 141.076 39.3802 141.076 37.668C141.076 35.9557 141.542 34.5951 142.473 33.5859C143.41 32.5703 144.667 32.0625 146.242 32.0625C147.792 32.0625 149.022 32.5443 149.934 33.5078C150.852 34.4714 151.311 35.7702 151.311 37.4043V38.2832H143.889V38.459C143.889 39.2337 144.12 39.862 144.582 40.3438C145.044 40.819 145.65 41.0566 146.398 41.0566C146.939 41.0566 147.404 40.9395 147.795 40.7051C148.192 40.4642 148.459 40.1354 148.596 39.7188ZM161.604 32.248V34.4062H158.381V43H155.539V34.4062H152.316V32.248H161.604ZM172.004 34.0742H170.207V36.6035H171.848C172.395 36.6035 172.808 36.4961 173.088 36.2812C173.374 36.0599 173.518 35.7441 173.518 35.334C173.518 34.9303 173.384 34.6211 173.117 34.4062C172.857 34.1849 172.486 34.0742 172.004 34.0742ZM171.994 38.2832H170.207V41.1641H172.141C172.72 41.1641 173.163 41.0404 173.469 40.793C173.775 40.5456 173.928 40.1875 173.928 39.7188C173.928 38.7617 173.283 38.2832 171.994 38.2832ZM167.414 43V32.248H172.746C173.859 32.248 174.732 32.4889 175.363 32.9707C175.995 33.4525 176.311 34.1165 176.311 34.9629C176.311 35.5358 176.125 36.0436 175.754 36.4863C175.383 36.929 174.924 37.196 174.377 37.2871V37.3652C175.093 37.4564 175.673 37.7331 176.115 38.1953C176.564 38.651 176.789 39.2142 176.789 39.8848C176.789 40.8353 176.434 41.5938 175.725 42.1602C175.015 42.7201 174.055 43 172.844 43H167.414ZM188.742 43V32.248H191.584V43H188.742ZM183.068 37.4922H181.428V40.8613H183.068C183.609 40.8613 184.042 40.7083 184.367 40.4023C184.693 40.0898 184.855 39.6797 184.855 39.1719C184.855 38.6706 184.693 38.2669 184.367 37.9609C184.042 37.6484 183.609 37.4922 183.068 37.4922ZM178.586 43V32.248H181.428V35.373H183.518C184.787 35.373 185.796 35.7181 186.545 36.4082C187.3 37.0983 187.678 38.026 187.678 39.1914C187.678 40.3568 187.3 41.2845 186.545 41.9746C185.796 42.6582 184.787 43 183.518 43H178.586ZM201.184 34.4062H196.564V43H193.723V32.248H201.184V34.4062ZM206.379 37.873C206.333 38.7064 206.239 39.429 206.096 40.041C205.952 40.653 205.741 41.1999 205.461 41.6816C205.181 42.1569 204.81 42.5182 204.348 42.7656C203.892 43.0065 203.342 43.127 202.697 43.127C202.32 43.127 202.017 43.0814 201.789 42.9902V40.5781C201.997 40.6302 202.202 40.6562 202.404 40.6562C202.658 40.6562 202.873 40.5846 203.049 40.4414C203.231 40.2982 203.374 40.0898 203.479 39.8164C203.589 39.5365 203.671 39.2272 203.723 38.8887C203.781 38.5501 203.824 38.153 203.85 37.6973L204.162 32.248H212.238V43H209.396V34.4062H206.604L206.379 37.873ZM218.791 37.4922H220.568V34.377H218.791C218.264 34.377 217.844 34.5234 217.531 34.8164C217.219 35.1029 217.062 35.487 217.062 35.9688C217.062 36.418 217.219 36.7858 217.531 37.0723C217.85 37.3522 218.27 37.4922 218.791 37.4922ZM220.568 43V39.5039H219.338L216.936 43H213.771L216.604 39.0742C215.861 38.8398 215.282 38.4557 214.865 37.9219C214.449 37.3815 214.24 36.7305 214.24 35.9688C214.24 34.8294 214.628 33.9245 215.402 33.2539C216.177 32.5833 217.215 32.248 218.518 32.248H223.352V43H220.568ZM232.678 40.832V34.3965H229.396L229.152 37.873C229.055 39.1491 228.788 40.1094 228.352 40.7539V40.832H232.678ZM227.209 45.7832H224.611V40.832H225.441C226.118 40.4544 226.516 39.4095 226.633 37.6973L226.984 32.248H235.51V40.832H237.111V45.7832H234.514V43H227.209V45.7832ZM243.244 34.1914C242.593 34.1914 242.049 34.4062 241.613 34.8359C241.184 35.2656 240.943 35.8255 240.891 36.5156H245.529C245.503 35.8125 245.282 35.2493 244.865 34.8262C244.449 34.403 243.908 34.1914 243.244 34.1914ZM245.568 39.7188H248.195C248.039 40.7604 247.515 41.6003 246.623 42.2383C245.731 42.8698 244.631 43.1855 243.322 43.1855C241.688 43.1855 240.399 42.694 239.455 41.7109C238.518 40.7279 238.049 39.3802 238.049 37.668C238.049 35.9557 238.514 34.5951 239.445 33.5859C240.383 32.5703 241.639 32.0625 243.215 32.0625C244.764 32.0625 245.995 32.5443 246.906 33.5078C247.824 34.4714 248.283 35.7702 248.283 37.4043V38.2832H240.861V38.459C240.861 39.2337 241.092 39.862 241.555 40.3438C242.017 40.819 242.622 41.0566 243.371 41.0566C243.911 41.0566 244.377 40.9395 244.768 40.7051C245.165 40.4642 245.432 40.1354 245.568 39.7188ZM258.576 32.248V34.4062H255.354V43H252.512V34.4062H249.289V32.248H258.576ZM264.572 37.4922H262.932V40.8613H264.572C265.113 40.8613 265.546 40.7083 265.871 40.4023C266.197 40.0898 266.359 39.6797 266.359 39.1719C266.359 38.6706 266.197 38.2669 265.871 37.9609C265.546 37.6484 265.113 37.4922 264.572 37.4922ZM260.09 43V32.248H262.932V35.373H265.021C266.291 35.373 267.3 35.7181 268.049 36.4082C268.804 37.0983 269.182 38.026 269.182 39.1914C269.182 40.3568 268.804 41.2845 268.049 41.9746C267.3 42.6582 266.291 43 265.021 43H260.09ZM283.791 32.248V34.4062H280.568V43H277.727V34.4062H274.504V32.248H283.791ZM289.26 41.0469C289.93 41.0469 290.493 40.8613 290.949 40.4902C291.405 40.1126 291.633 39.6341 291.633 39.0547V38.2637L289.377 38.4199C288.785 38.459 288.332 38.5924 288.02 38.8203C287.707 39.0482 287.551 39.3607 287.551 39.7578C287.551 40.1549 287.704 40.4707 288.01 40.7051C288.322 40.9329 288.739 41.0469 289.26 41.0469ZM288.332 43.127C287.284 43.127 286.418 42.8275 285.734 42.2285C285.051 41.6296 284.709 40.8548 284.709 39.9043C284.709 38.9342 285.07 38.1758 285.793 37.6289C286.516 37.082 287.567 36.7663 288.947 36.6816L291.633 36.5156V35.8027C291.633 35.2884 291.467 34.8945 291.135 34.6211C290.803 34.3411 290.34 34.2012 289.748 34.2012C289.24 34.2012 288.814 34.3249 288.469 34.5723C288.13 34.8132 287.925 35.1322 287.854 35.5293H285.246C285.285 34.5007 285.728 33.6673 286.574 33.0293C287.427 32.3848 288.524 32.0625 289.865 32.0625C291.245 32.0625 292.352 32.388 293.186 33.0391C294.019 33.6901 294.436 34.5527 294.436 35.627V43H291.682V41.3398H291.623C291.337 41.8932 290.891 42.3294 290.285 42.6484C289.686 42.9674 289.035 43.127 288.332 43.127ZM302.043 37.2383L306.633 43H303.186L299.475 38.3516H299.396V43H296.555V32.248H299.396V36.6035H299.475L303.127 32.248H306.389L302.043 37.2383Z" fill="black"/>
<path d="M103.5 71H312.5L406.5 230L312.5 376H103.5L0 223.5L103.5 71Z" fill="#0065F6"/>
<path d="M197.063 94H259.788L288 141.439L259.788 185H197.063L166 139.5L197.063 94Z" fill="#0065F6" stroke="white" stroke-width="2"/>
<path d="M217.02 133.07V136H205.816V119.09H217.02V122.008H209.355V126.086H216.586V128.805H209.355V133.07H217.02ZM223.113 121.855V127.246H226.219C227.109 127.246 227.801 127.008 228.293 126.531C228.793 126.055 229.043 125.395 229.043 124.551C229.043 123.73 228.785 123.078 228.27 122.594C227.754 122.102 227.059 121.855 226.184 121.855H223.113ZM223.113 129.812V136H219.574V119.09H226.559C228.488 119.09 229.988 119.57 231.059 120.531C232.137 121.484 232.676 122.801 232.676 124.48C232.676 125.582 232.402 126.566 231.855 127.434C231.316 128.293 230.566 128.91 229.605 129.285L233.168 136H229.16L226.008 129.812H223.113ZM234.996 119.09H242.051C243.793 119.09 245.203 119.621 246.281 120.684C247.367 121.746 247.91 123.145 247.91 124.879C247.91 126.605 247.352 128.004 246.234 129.074C245.117 130.137 243.664 130.668 241.875 130.668H238.535V136H234.996V119.09ZM238.535 121.891V127.902H241.102C242.117 127.902 242.906 127.641 243.469 127.117C244.031 126.594 244.312 125.852 244.312 124.891C244.312 123.93 244.031 123.191 243.469 122.676C242.914 122.152 242.129 121.891 241.113 121.891H238.535ZM213.516 145.74H211.916C211.842 145.447 211.695 145.215 211.477 145.043C211.258 144.871 210.982 144.785 210.65 144.785C210.209 144.785 209.859 144.963 209.602 145.318C209.344 145.67 209.215 146.154 209.215 146.771C209.215 147.396 209.344 147.885 209.602 148.236C209.859 148.584 210.211 148.758 210.656 148.758C210.988 148.758 211.264 148.678 211.482 148.518C211.701 148.354 211.85 148.119 211.928 147.814H213.521C213.439 148.521 213.141 149.082 212.625 149.496C212.109 149.906 211.447 150.111 210.639 150.111C209.674 150.111 208.908 149.814 208.342 149.221C207.779 148.623 207.498 147.807 207.498 146.771C207.498 145.752 207.779 144.941 208.342 144.34C208.908 143.738 209.67 143.438 210.627 143.438C211.436 143.438 212.098 143.65 212.613 144.076C213.133 144.502 213.434 145.057 213.516 145.74ZM217.793 146.543L220.547 150H218.479L216.252 147.211H216.205V150H214.5V143.549H216.205V146.162H216.252L218.443 143.549H220.4L217.793 146.543ZM223.57 146.924C223.543 147.424 223.486 147.857 223.4 148.225C223.314 148.592 223.188 148.92 223.02 149.209C222.852 149.494 222.629 149.711 222.352 149.859C222.078 150.004 221.748 150.076 221.361 150.076C221.135 150.076 220.953 150.049 220.816 149.994V148.547C220.941 148.578 221.064 148.594 221.186 148.594C221.338 148.594 221.467 148.551 221.572 148.465C221.682 148.379 221.768 148.254 221.83 148.09C221.896 147.922 221.945 147.736 221.977 147.533C222.012 147.33 222.037 147.092 222.053 146.818L222.24 143.549H227.086V150H225.381V144.844H223.705L223.57 146.924ZM230.83 148.828C231.232 148.828 231.57 148.717 231.844 148.494C232.117 148.268 232.254 147.98 232.254 147.633V147.158L230.9 147.252C230.545 147.275 230.273 147.355 230.086 147.492C229.898 147.629 229.805 147.816 229.805 148.055C229.805 148.293 229.896 148.482 230.08 148.623C230.268 148.76 230.518 148.828 230.83 148.828ZM230.273 150.076C229.645 150.076 229.125 149.896 228.715 149.537C228.305 149.178 228.1 148.713 228.1 148.143C228.1 147.561 228.316 147.105 228.75 146.777C229.184 146.449 229.814 146.26 230.643 146.209L232.254 146.109V145.682C232.254 145.373 232.154 145.137 231.955 144.973C231.756 144.805 231.479 144.721 231.123 144.721C230.818 144.721 230.562 144.795 230.355 144.943C230.152 145.088 230.029 145.279 229.986 145.518H228.422C228.445 144.9 228.711 144.4 229.219 144.018C229.73 143.631 230.389 143.438 231.193 143.438C232.021 143.438 232.686 143.633 233.186 144.023C233.686 144.414 233.936 144.932 233.936 145.576V150H232.283V149.004H232.248C232.076 149.336 231.809 149.598 231.445 149.789C231.086 149.98 230.695 150.076 230.273 150.076ZM239.525 148.699V144.838H237.557L237.41 146.924C237.352 147.689 237.191 148.266 236.93 148.652V148.699H239.525ZM236.244 151.67H234.686V148.699H235.184C235.59 148.473 235.828 147.846 235.898 146.818L236.109 143.549H241.225V148.699H242.186V151.67H240.627V150H236.244V151.67ZM244.365 151.588H243.07L243.557 148.418H245.168L244.365 151.588ZM193.008 164.141C191.961 164.141 191.158 163.812 190.6 163.156C190.041 162.5 189.762 161.543 189.762 160.285C189.762 159.375 189.836 158.596 189.984 157.947C190.133 157.295 190.357 156.764 190.658 156.354C190.963 155.943 191.334 155.639 191.771 155.439C192.209 155.24 192.729 155.131 193.33 155.111L194.062 155.088C194.438 155.072 194.789 155.037 195.117 154.982C195.445 154.928 195.66 154.873 195.762 154.818V156.154C195.699 156.209 195.518 156.268 195.217 156.33C194.92 156.389 194.572 156.424 194.174 156.436L193.477 156.459C193.074 156.471 192.732 156.529 192.451 156.635C192.174 156.736 191.941 156.895 191.754 157.109C191.57 157.32 191.426 157.574 191.32 157.871C191.219 158.168 191.141 158.537 191.086 158.979H191.133C191.555 158.174 192.281 157.771 193.312 157.771C194.184 157.771 194.879 158.049 195.398 158.604C195.922 159.158 196.184 159.906 196.184 160.848C196.184 161.863 195.898 162.666 195.328 163.256C194.762 163.846 193.988 164.141 193.008 164.141ZM191.895 162.295C192.152 162.623 192.512 162.787 192.973 162.787C193.434 162.787 193.791 162.623 194.045 162.295C194.303 161.963 194.432 161.494 194.432 160.889C194.432 160.311 194.303 159.861 194.045 159.541C193.791 159.217 193.434 159.055 192.973 159.055C192.516 159.055 192.158 159.217 191.9 159.541C191.643 159.861 191.514 160.311 191.514 160.889C191.514 161.494 191.641 161.963 191.895 162.295ZM197.988 166.355C197.641 166.355 197.424 166.348 197.338 166.332V165.008C197.396 165.02 197.525 165.025 197.725 165.025C198.049 165.025 198.303 164.965 198.486 164.844C198.674 164.727 198.801 164.541 198.867 164.287L198.926 164.041L196.664 157.549H198.539L199.934 162.611H199.969L201.369 157.549H203.174L200.941 164.129C200.668 164.949 200.309 165.525 199.863 165.857C199.422 166.189 198.797 166.355 197.988 166.355ZM206.666 161.744H206.631L205.395 164H203.59L205.629 160.783L203.607 157.549H205.535L206.719 159.746H206.754L207.932 157.549H209.789L207.762 160.742L209.777 164H207.908L206.666 161.744ZM215.098 158.844H212.326V164H210.621V157.549H215.098V158.844ZM218.467 162.828C218.869 162.828 219.207 162.717 219.48 162.494C219.754 162.268 219.891 161.98 219.891 161.633V161.158L218.537 161.252C218.182 161.275 217.91 161.355 217.723 161.492C217.535 161.629 217.441 161.816 217.441 162.055C217.441 162.293 217.533 162.482 217.717 162.623C217.904 162.76 218.154 162.828 218.467 162.828ZM217.91 164.076C217.281 164.076 216.762 163.896 216.352 163.537C215.941 163.178 215.736 162.713 215.736 162.143C215.736 161.561 215.953 161.105 216.387 160.777C216.82 160.449 217.451 160.26 218.279 160.209L219.891 160.109V159.682C219.891 159.373 219.791 159.137 219.592 158.973C219.393 158.805 219.115 158.721 218.76 158.721C218.455 158.721 218.199 158.795 217.992 158.943C217.789 159.088 217.666 159.279 217.623 159.518H216.059C216.082 158.9 216.348 158.4 216.855 158.018C217.367 157.631 218.025 157.438 218.83 157.438C219.658 157.438 220.322 157.633 220.822 158.023C221.322 158.414 221.572 158.932 221.572 159.576V164H219.92V163.004H219.885C219.713 163.336 219.445 163.598 219.082 163.789C218.723 163.98 218.332 164.076 217.91 164.076ZM225.152 160.924C225.125 161.424 225.068 161.857 224.982 162.225C224.896 162.592 224.77 162.92 224.602 163.209C224.434 163.494 224.211 163.711 223.934 163.859C223.66 164.004 223.33 164.076 222.943 164.076C222.717 164.076 222.535 164.049 222.398 163.994V162.547C222.523 162.578 222.646 162.594 222.768 162.594C222.92 162.594 223.049 162.551 223.154 162.465C223.264 162.379 223.35 162.254 223.412 162.09C223.479 161.922 223.527 161.736 223.559 161.533C223.594 161.33 223.619 161.092 223.635 160.818L223.822 157.549H228.668V164H226.963V158.844H225.287L225.152 160.924ZM235.143 157.549V158.844H233.209V164H231.504V158.844H229.57V157.549H235.143ZM238.869 158.715C238.479 158.715 238.152 158.844 237.891 159.102C237.633 159.359 237.488 159.695 237.457 160.109H240.24C240.225 159.688 240.092 159.35 239.842 159.096C239.592 158.842 239.268 158.715 238.869 158.715ZM240.264 162.031H241.84C241.746 162.656 241.432 163.16 240.896 163.543C240.361 163.922 239.701 164.111 238.916 164.111C237.936 164.111 237.162 163.816 236.596 163.227C236.033 162.637 235.752 161.828 235.752 160.801C235.752 159.773 236.031 158.957 236.59 158.352C237.152 157.742 237.906 157.438 238.852 157.438C239.781 157.438 240.52 157.727 241.066 158.305C241.617 158.883 241.893 159.662 241.893 160.643V161.17H237.439V161.275C237.439 161.74 237.578 162.117 237.855 162.406C238.133 162.691 238.496 162.834 238.945 162.834C239.27 162.834 239.549 162.764 239.783 162.623C240.021 162.479 240.182 162.281 240.264 162.031ZM246.656 157.473C247.477 157.473 248.123 157.768 248.596 158.357C249.068 158.943 249.305 159.748 249.305 160.771C249.305 161.795 249.068 162.602 248.596 163.191C248.127 163.781 247.488 164.076 246.68 164.076C246.215 164.076 245.809 163.975 245.461 163.771C245.113 163.568 244.852 163.283 244.676 162.916H244.641V166.109H242.93V157.549H244.617V158.65H244.652C244.824 158.287 245.088 158 245.443 157.789C245.799 157.578 246.203 157.473 246.656 157.473ZM246.088 162.693C246.533 162.693 246.889 162.52 247.154 162.172C247.42 161.824 247.553 161.357 247.553 160.771C247.553 160.193 247.418 159.73 247.148 159.383C246.883 159.031 246.529 158.855 246.088 158.855C245.65 158.855 245.299 159.031 245.033 159.383C244.768 159.734 244.635 160.199 244.635 160.777C244.635 161.355 244.768 161.82 245.033 162.172C245.299 162.52 245.65 162.693 246.088 162.693ZM252.035 164H250.359V157.549H252.035V161.633H252.082L254.695 157.549H256.371V164H254.695V159.869H254.648L252.035 164ZM260.303 160.695H261.369V158.826H260.303C259.986 158.826 259.734 158.914 259.547 159.09C259.359 159.262 259.266 159.492 259.266 159.781C259.266 160.051 259.359 160.271 259.547 160.443C259.738 160.611 259.99 160.695 260.303 160.695ZM261.369 164V161.902H260.631L259.189 164H257.291L258.99 161.645C258.545 161.504 258.197 161.273 257.947 160.953C257.697 160.629 257.572 160.238 257.572 159.781C257.572 159.098 257.805 158.555 258.27 158.152C258.734 157.75 259.357 157.549 260.139 157.549H263.039V164H261.369Z" fill="white"/>
<path d="M62.0627 178H124.788L153 225.439L124.788 269H62.0627L31 223.5L62.0627 178Z" fill="#0065F6" stroke="white" stroke-width="2"/>
<path d="M78.7891 227H71.1953V210.09H78.6602C80.2461 210.09 81.5039 210.469 82.4336 211.227C83.3633 211.984 83.8281 213.012 83.8281 214.309C83.8281 215.23 83.5234 216.039 82.9141 216.734C82.3125 217.43 81.5586 217.844 80.6523 217.977V218.07C81.8086 218.156 82.7617 218.582 83.5117 219.348C84.2617 220.113 84.6367 221.051 84.6367 222.16C84.6367 223.652 84.1133 224.832 83.0664 225.699C82.0195 226.566 80.5938 227 78.7891 227ZM74.7344 212.727V217.121H77.3828C78.3281 217.121 79.0586 216.926 79.5742 216.535C80.0898 216.137 80.3477 215.578 80.3477 214.859C80.3477 214.18 80.1211 213.656 79.668 213.289C79.2148 212.914 78.5742 212.727 77.7461 212.727H74.7344ZM74.7344 224.363H77.8867C78.9102 224.363 79.6875 224.152 80.2188 223.73C80.7578 223.301 81.0273 222.684 81.0273 221.879C81.0273 221.09 80.75 220.488 80.1953 220.074C79.6484 219.66 78.8516 219.453 77.8047 219.453H74.7344V224.363ZM86.2539 215.176C86.2539 213.574 86.832 212.266 87.9883 211.25C89.1523 210.227 90.6562 209.715 92.5 209.715C94.2734 209.715 95.7188 210.176 96.8359 211.098C97.9531 212.012 98.5117 213.18 98.5117 214.602C98.5117 215.109 98.4336 215.602 98.2773 216.078C98.1289 216.547 97.8867 217.02 97.5508 217.496C97.2227 217.965 96.8906 218.391 96.5547 218.773C96.2188 219.148 95.7812 219.605 95.2422 220.145L91.1172 224.117V224.188H98.7461V227H86.4531V224.621L92.8281 218.48C93.6875 217.621 94.2734 216.93 94.5859 216.406C94.9062 215.883 95.0664 215.328 95.0664 214.742C95.0664 214.102 94.8125 213.562 94.3047 213.125C93.7969 212.688 93.1562 212.469 92.3828 212.469C91.5625 212.469 90.8828 212.727 90.3438 213.242C89.8047 213.75 89.5352 214.395 89.5352 215.176V215.234H86.2539V215.176ZM108.742 227H101.148V210.09H108.613C110.199 210.09 111.457 210.469 112.387 211.227C113.316 211.984 113.781 213.012 113.781 214.309C113.781 215.23 113.477 216.039 112.867 216.734C112.266 217.43 111.512 217.844 110.605 217.977V218.07C111.762 218.156 112.715 218.582 113.465 219.348C114.215 220.113 114.59 221.051 114.59 222.16C114.59 223.652 114.066 224.832 113.02 225.699C111.973 226.566 110.547 227 108.742 227ZM104.688 212.727V217.121H107.336C108.281 217.121 109.012 216.926 109.527 216.535C110.043 216.137 110.301 215.578 110.301 214.859C110.301 214.18 110.074 213.656 109.621 213.289C109.168 212.914 108.527 212.727 107.699 212.727H104.688ZM104.688 224.363H107.84C108.863 224.363 109.641 224.152 110.172 223.73C110.711 223.301 110.98 222.684 110.98 221.879C110.98 221.09 110.703 220.488 110.148 220.074C109.602 219.66 108.805 219.453 107.758 219.453H104.688V224.363ZM85.416 236.74H83.8164C83.7422 236.447 83.5957 236.215 83.377 236.043C83.1582 235.871 82.8828 235.785 82.5508 235.785C82.1094 235.785 81.7598 235.963 81.502 236.318C81.2441 236.67 81.1152 237.154 81.1152 237.771C81.1152 238.396 81.2441 238.885 81.502 239.236C81.7598 239.584 82.1113 239.758 82.5566 239.758C82.8887 239.758 83.1641 239.678 83.3828 239.518C83.6016 239.354 83.75 239.119 83.8281 238.814H85.4219C85.3398 239.521 85.041 240.082 84.5254 240.496C84.0098 240.906 83.3477 241.111 82.5391 241.111C81.5742 241.111 80.8086 240.814 80.2422 240.221C79.6797 239.623 79.3984 238.807 79.3984 237.771C79.3984 236.752 79.6797 235.941 80.2422 235.34C80.8086 234.738 81.5703 234.438 82.5273 234.438C83.3359 234.438 83.998 234.65 84.5137 235.076C85.0332 235.502 85.334 236.057 85.416 236.74ZM88.8672 239.828C89.2695 239.828 89.6074 239.717 89.8809 239.494C90.1543 239.268 90.291 238.98 90.291 238.633V238.158L88.9375 238.252C88.582 238.275 88.3105 238.355 88.123 238.492C87.9355 238.629 87.8418 238.816 87.8418 239.055C87.8418 239.293 87.9336 239.482 88.1172 239.623C88.3047 239.76 88.5547 239.828 88.8672 239.828ZM88.3105 241.076C87.6816 241.076 87.1621 240.896 86.752 240.537C86.3418 240.178 86.1367 239.713 86.1367 239.143C86.1367 238.561 86.3535 238.105 86.7871 237.777C87.2207 237.449 87.8516 237.26 88.6797 237.209L90.291 237.109V236.682C90.291 236.373 90.1914 236.137 89.9922 235.973C89.793 235.805 89.5156 235.721 89.1602 235.721C88.8555 235.721 88.5996 235.795 88.3926 235.943C88.1895 236.088 88.0664 236.279 88.0234 236.518H86.459C86.4824 235.9 86.748 235.4 87.2559 235.018C87.7676 234.631 88.4258 234.438 89.2305 234.438C90.0586 234.438 90.7227 234.633 91.2227 235.023C91.7227 235.414 91.9727 235.932 91.9727 236.576V241H90.3203V240.004H90.2852C90.1133 240.336 89.8457 240.598 89.4824 240.789C89.123 240.98 88.7324 241.076 88.3105 241.076ZM94.1992 231.701H95.2422C95.25 232.018 95.3457 232.277 95.5293 232.48C95.7129 232.68 95.957 232.779 96.2617 232.779C96.5625 232.779 96.8047 232.68 96.9883 232.48C97.1719 232.277 97.2676 232.018 97.2754 231.701H98.3242C98.3242 232.279 98.1348 232.746 97.7559 233.102C97.377 233.453 96.8789 233.629 96.2617 233.629C95.6445 233.629 95.1465 233.453 94.7676 233.102C94.3887 232.746 94.1992 232.279 94.1992 231.701ZM94.9199 241H93.2441V234.549H94.9199V238.633H94.9668L97.5801 234.549H99.2559V241H97.5801V236.869H97.5332L94.9199 241ZM105.73 234.549V235.844H103.797V241H102.092V235.844H100.158V234.549H105.73Z" fill="white"/>
<path d="M197.063 261H259.788L288 308.439L259.788 352H197.063L166 306.5L197.063 261Z" fill="#0065F6" stroke="white" stroke-width="2"/>
<path d="M209.758 306.293C207.289 306.293 205.336 305.516 203.898 303.961C202.469 302.398 201.754 300.258 201.754 297.539C201.754 294.828 202.473 292.695 203.91 291.141C205.348 289.578 207.297 288.797 209.758 288.797C211.102 288.797 212.32 289.062 213.414 289.594C214.516 290.125 215.398 290.875 216.062 291.844C216.727 292.812 217.102 293.918 217.188 295.16H213.742C213.578 294.121 213.129 293.289 212.395 292.664C211.668 292.039 210.789 291.727 209.758 291.727C208.422 291.727 207.355 292.25 206.559 293.297C205.762 294.344 205.363 295.754 205.363 297.527C205.363 299.332 205.758 300.758 206.547 301.805C207.336 302.844 208.41 303.363 209.77 303.363C210.816 303.363 211.695 303.074 212.406 302.496C213.117 301.918 213.566 301.129 213.754 300.129H217.199C217.004 302.012 216.234 303.512 214.891 304.629C213.547 305.738 211.836 306.293 209.758 306.293ZM222.93 291.855V297.246H226.035C226.926 297.246 227.617 297.008 228.109 296.531C228.609 296.055 228.859 295.395 228.859 294.551C228.859 293.73 228.602 293.078 228.086 292.594C227.57 292.102 226.875 291.855 226 291.855H222.93ZM222.93 299.812V306H219.391V289.09H226.375C228.305 289.09 229.805 289.57 230.875 290.531C231.953 291.484 232.492 292.801 232.492 294.48C232.492 295.582 232.219 296.566 231.672 297.434C231.133 298.293 230.383 298.91 229.422 299.285L232.984 306H228.977L225.824 299.812H222.93ZM252.719 289.09V306H249.566V294.586H249.473L244.879 305.836H242.652L238.059 294.586H237.965V306H234.812V289.09H238.914L243.719 301.078H243.812L248.617 289.09H252.719ZM194.037 320H192.432V313.549H194.641L196.369 317.814H196.416L198.139 313.549H200.324V320H198.713V315.67H198.666L196.973 319.648H195.783L194.084 315.67H194.037V320ZM204.484 314.715C204.094 314.715 203.768 314.844 203.506 315.102C203.248 315.359 203.104 315.695 203.072 316.109H205.855C205.84 315.688 205.707 315.35 205.457 315.096C205.207 314.842 204.883 314.715 204.484 314.715ZM205.879 318.031H207.455C207.361 318.656 207.047 319.16 206.512 319.543C205.977 319.922 205.316 320.111 204.531 320.111C203.551 320.111 202.777 319.816 202.211 319.227C201.648 318.637 201.367 317.828 201.367 316.801C201.367 315.773 201.646 314.957 202.205 314.352C202.768 313.742 203.521 313.438 204.467 313.438C205.396 313.438 206.135 313.727 206.682 314.305C207.232 314.883 207.508 315.662 207.508 316.643V317.17H203.055V317.275C203.055 317.74 203.193 318.117 203.471 318.406C203.748 318.691 204.111 318.834 204.561 318.834C204.885 318.834 205.164 318.764 205.398 318.623C205.637 318.479 205.797 318.281 205.879 318.031ZM212.775 320V317.34H210.25V320H208.545V313.549H210.25V316.039H212.775V313.549H214.48V320H212.775ZM218.641 314.715C218.25 314.715 217.924 314.844 217.662 315.102C217.404 315.359 217.26 315.695 217.229 316.109H220.012C219.996 315.688 219.863 315.35 219.613 315.096C219.363 314.842 219.039 314.715 218.641 314.715ZM220.035 318.031H221.611C221.518 318.656 221.203 319.16 220.668 319.543C220.133 319.922 219.473 320.111 218.688 320.111C217.707 320.111 216.934 319.816 216.367 319.227C215.805 318.637 215.523 317.828 215.523 316.801C215.523 315.773 215.803 314.957 216.361 314.352C216.924 313.742 217.678 313.438 218.623 313.438C219.553 313.438 220.291 313.727 220.838 314.305C221.389 314.883 221.664 315.662 221.664 316.643V317.17H217.211V317.275C217.211 317.74 217.35 318.117 217.627 318.406C217.904 318.691 218.268 318.834 218.717 318.834C219.041 318.834 219.32 318.764 219.555 318.623C219.793 318.479 219.953 318.281 220.035 318.031ZM227.02 318.699V314.838H225.051L224.904 316.924C224.846 317.689 224.686 318.266 224.424 318.652V318.699H227.02ZM223.738 321.67H222.18V318.699H222.678C223.084 318.473 223.322 317.846 223.393 316.818L223.604 313.549H228.719V318.699H229.68V321.67H228.121V320H223.738V321.67ZM237.273 316.543L239.775 320H237.736L235.727 317.211H235.68V320H233.992V317.211H233.945L231.93 320H229.92L232.404 316.584L229.996 313.549H231.965L233.945 316.162H233.992V313.549H235.68V316.162H235.727L237.701 313.549H239.652L237.273 316.543ZM243.273 314.715C242.883 314.715 242.557 314.844 242.295 315.102C242.037 315.359 241.893 315.695 241.861 316.109H244.645C244.629 315.688 244.496 315.35 244.246 315.096C243.996 314.842 243.672 314.715 243.273 314.715ZM244.668 318.031H246.244C246.15 318.656 245.836 319.16 245.301 319.543C244.766 319.922 244.105 320.111 243.32 320.111C242.34 320.111 241.566 319.816 241 319.227C240.438 318.637 240.156 317.828 240.156 316.801C240.156 315.773 240.436 314.957 240.994 314.352C241.557 313.742 242.311 313.438 243.256 313.438C244.186 313.438 244.924 313.727 245.471 314.305C246.021 314.883 246.297 315.662 246.297 316.643V317.17H241.844V317.275C241.844 317.74 241.982 318.117 242.26 318.406C242.537 318.691 242.9 318.834 243.35 318.834C243.674 318.834 243.953 318.764 244.188 318.623C244.426 318.479 244.586 318.281 244.668 318.031ZM251.061 313.473C251.881 313.473 252.527 313.768 253 314.357C253.473 314.943 253.709 315.748 253.709 316.771C253.709 317.795 253.473 318.602 253 319.191C252.531 319.781 251.893 320.076 251.084 320.076C250.619 320.076 250.213 319.975 249.865 319.771C249.518 319.568 249.256 319.283 249.08 318.916H249.045V322.109H247.334V313.549H249.021V314.65H249.057C249.229 314.287 249.492 314 249.848 313.789C250.203 313.578 250.607 313.473 251.061 313.473ZM250.492 318.693C250.938 318.693 251.293 318.52 251.559 318.172C251.824 317.824 251.957 317.357 251.957 316.771C251.957 316.193 251.822 315.73 251.553 315.383C251.287 315.031 250.934 314.855 250.492 314.855C250.055 314.855 249.703 315.031 249.438 315.383C249.172 315.734 249.039 316.199 249.039 316.777C249.039 317.355 249.172 317.82 249.438 318.172C249.703 318.52 250.055 318.693 250.492 318.693ZM260.857 320V313.549H262.562V320H260.857ZM257.453 316.695H256.469V318.717H257.453C257.777 318.717 258.037 318.625 258.232 318.441C258.428 318.254 258.525 318.008 258.525 317.703C258.525 317.402 258.428 317.16 258.232 316.977C258.037 316.789 257.777 316.695 257.453 316.695ZM254.764 320V313.549H256.469V315.424H257.723C258.484 315.424 259.09 315.631 259.539 316.045C259.992 316.459 260.219 317.016 260.219 317.715C260.219 318.414 259.992 318.971 259.539 319.385C259.09 319.795 258.484 320 257.723 320H254.764Z" fill="white"/>
<path d="M167.063 178H229.788L258 225.439L229.788 269H167.063L136 223.5L167.063 178Z" fill="white" stroke="white" stroke-width="2"/>
<path d="M154.688 229H152.453V220.398H154.688V225.844H154.75L158.234 220.398H160.469V229H158.234V223.492H158.172L154.688 229ZM167.812 229V225.453H164.445V229H162.172V220.398H164.445V223.719H167.812V220.398H170.086V229H167.812ZM178.727 220.398V222.125H176.148V229H173.875V222.125H171.297V220.398H178.727ZM183.695 221.953C183.174 221.953 182.74 222.125 182.391 222.469C182.047 222.812 181.854 223.26 181.812 223.812H185.523C185.503 223.25 185.326 222.799 184.992 222.461C184.659 222.122 184.227 221.953 183.695 221.953ZM185.555 226.375H187.656C187.531 227.208 187.112 227.88 186.398 228.391C185.685 228.896 184.805 229.148 183.758 229.148C182.451 229.148 181.419 228.755 180.664 227.969C179.914 227.182 179.539 226.104 179.539 224.734C179.539 223.365 179.911 222.276 180.656 221.469C181.406 220.656 182.411 220.25 183.672 220.25C184.911 220.25 185.896 220.635 186.625 221.406C187.359 222.177 187.727 223.216 187.727 224.523V225.227H181.789V225.367C181.789 225.987 181.974 226.49 182.344 226.875C182.714 227.255 183.198 227.445 183.797 227.445C184.229 227.445 184.602 227.352 184.914 227.164C185.232 226.971 185.445 226.708 185.555 226.375ZM195.078 222.125H191.383V229H189.109V220.398H195.078V222.125ZM201.406 220.297C202.5 220.297 203.362 220.69 203.992 221.477C204.622 222.258 204.938 223.331 204.938 224.695C204.938 226.06 204.622 227.135 203.992 227.922C203.367 228.708 202.516 229.102 201.438 229.102C200.818 229.102 200.276 228.966 199.812 228.695C199.349 228.424 199 228.044 198.766 227.555H198.719V231.812H196.438V220.398H198.688V221.867H198.734C198.964 221.383 199.315 221 199.789 220.719C200.263 220.438 200.802 220.297 201.406 220.297ZM200.648 227.258C201.242 227.258 201.716 227.026 202.07 226.562C202.424 226.099 202.602 225.477 202.602 224.695C202.602 223.924 202.422 223.307 202.062 222.844C201.708 222.375 201.237 222.141 200.648 222.141C200.065 222.141 199.596 222.375 199.242 222.844C198.888 223.312 198.711 223.932 198.711 224.703C198.711 225.474 198.888 226.094 199.242 226.562C199.596 227.026 200.065 227.258 200.648 227.258ZM209.633 227.438C210.169 227.438 210.62 227.289 210.984 226.992C211.349 226.69 211.531 226.307 211.531 225.844V225.211L209.727 225.336C209.253 225.367 208.891 225.474 208.641 225.656C208.391 225.839 208.266 226.089 208.266 226.406C208.266 226.724 208.388 226.977 208.633 227.164C208.883 227.346 209.216 227.438 209.633 227.438ZM208.891 229.102C208.052 229.102 207.359 228.862 206.812 228.383C206.266 227.904 205.992 227.284 205.992 226.523C205.992 225.747 206.281 225.141 206.859 224.703C207.438 224.266 208.279 224.013 209.383 223.945L211.531 223.812V223.242C211.531 222.831 211.398 222.516 211.133 222.297C210.867 222.073 210.497 221.961 210.023 221.961C209.617 221.961 209.276 222.06 209 222.258C208.729 222.451 208.565 222.706 208.508 223.023H206.422C206.453 222.201 206.807 221.534 207.484 221.023C208.167 220.508 209.044 220.25 210.117 220.25C211.221 220.25 212.107 220.51 212.773 221.031C213.44 221.552 213.773 222.242 213.773 223.102V229H211.57V227.672H211.523C211.294 228.115 210.938 228.464 210.453 228.719C209.974 228.974 209.453 229.102 208.891 229.102ZM224.562 231.227H222.484V229H215.469V220.398H217.742V227.266H220.992V220.398H223.266V227.266H224.562V231.227ZM227.875 229H225.641V220.398H227.875V225.844H227.938L231.422 220.398H233.656V229H231.422V223.492H231.359L227.875 229ZM238.898 224.594H240.32V222.102H238.898C238.477 222.102 238.141 222.219 237.891 222.453C237.641 222.682 237.516 222.99 237.516 223.375C237.516 223.734 237.641 224.029 237.891 224.258C238.146 224.482 238.482 224.594 238.898 224.594ZM240.32 229V226.203H239.336L237.414 229H234.883L237.148 225.859C236.555 225.672 236.091 225.365 235.758 224.938C235.424 224.505 235.258 223.984 235.258 223.375C235.258 222.464 235.568 221.74 236.188 221.203C236.807 220.667 237.638 220.398 238.68 220.398H242.547V229H240.32Z" fill="#0065F6"/>
</svg>
