<svg width="307" height="307" viewBox="0 0 307 307" fill="none" xmlns="http://www.w3.org/2000/svg">
<circle cx="153" cy="154" r="153" fill="#0065F6"/>
<mask id="path-2-inside-1_1_394" fill="white">
<path d="M184.506 3.27894C164.373 -0.95748 143.593 -1.09014 123.409 2.88888L153 153L184.506 3.27894Z"/>
</mask>
<path d="M184.506 3.27894C164.373 -0.95748 143.593 -1.09014 123.409 2.88888L153 153L184.506 3.27894Z" fill="#00C58B" stroke="white" stroke-width="4" mask="url(#path-2-inside-1_1_394)"/>
<path d="M153 150H306" stroke="white" stroke-width="2" stroke-linecap="round"/>
<path d="M153 150L255 269" stroke="white" stroke-width="2" stroke-linecap="round"/>
<path d="M153 150L125 306" stroke="white" stroke-width="2" stroke-linecap="round"/>
<path d="M46.1367 105.82H32.2695V98.9648C34.6523 94.3034 38.0638 88.5872 42.5039 81.8164H53.9492V99.4727H57.3086V105.82H53.9492V110H46.1367V105.82ZM39.1445 99.8047H46.3711V87.2461H46.2148C43.168 91.9206 40.8112 96.0286 39.1445 99.5703V99.8047ZM72.3086 110.781C68.4805 110.781 65.4596 109.453 63.2461 106.797C61.0065 104.128 59.8867 100.475 59.8867 95.8398C59.8867 91.1914 61.013 87.5456 63.2656 84.9023C65.4792 82.3112 68.4935 81.0156 72.3086 81.0156C76.1237 81.0156 79.138 82.3112 81.3516 84.9023C83.5911 87.5326 84.7109 91.1719 84.7109 95.8203C84.7109 100.456 83.5977 104.108 81.3711 106.777C79.1445 109.447 76.1237 110.781 72.3086 110.781ZM72.3086 104.414C73.5065 104.414 74.457 103.711 75.1602 102.305C75.9023 100.794 76.2734 98.6393 76.2734 95.8398C76.2734 93.0404 75.9023 90.9049 75.1602 89.4336C74.4701 88.0664 73.5195 87.3828 72.3086 87.3828C71.0977 87.3828 70.1471 88.0664 69.457 89.4336C68.7018 90.9049 68.3242 93.0404 68.3242 95.8398C68.3242 98.6393 68.7018 100.794 69.457 102.305C70.1602 103.711 71.1107 104.414 72.3086 104.414ZM89.2812 110L109.809 81.8164H116.449L95.9219 110H89.2812ZM119.281 102.91C119.281 105.254 118.663 107.103 117.426 108.457C116.176 109.824 114.483 110.508 112.348 110.508C110.212 110.508 108.52 109.824 107.27 108.457C106.033 107.103 105.414 105.254 105.414 102.91C105.414 100.579 106.033 98.7435 107.27 97.4023C108.493 96.0742 110.186 95.4102 112.348 95.4102C114.509 95.4102 116.208 96.0742 117.445 97.4023C118.669 98.7305 119.281 100.566 119.281 102.91ZM112.348 106.055C113.233 106.055 113.676 105.007 113.676 102.91C113.676 100.879 113.233 99.8633 112.348 99.8633C111.475 99.8633 111.039 100.885 111.039 102.93C111.039 105.013 111.475 106.055 112.348 106.055ZM100.863 88.1055C100.863 90.4492 100.245 92.2982 99.0078 93.6523C97.7578 95.0195 96.0651 95.7031 93.9297 95.7031C91.7943 95.7031 90.1016 95.0195 88.8516 93.6523C87.6146 92.2982 86.9961 90.4492 86.9961 88.1055C86.9961 85.7747 87.6146 83.9388 88.8516 82.5977C90.0755 81.2695 91.7682 80.6055 93.9297 80.6055C96.0911 80.6055 97.7904 81.2695 99.0273 82.5977C100.251 83.9258 100.863 85.7617 100.863 88.1055ZM93.9297 91.25C94.8151 91.25 95.2578 90.2018 95.2578 88.1055C95.2578 86.0742 94.8151 85.0586 93.9297 85.0586C93.0573 85.0586 92.6211 86.0807 92.6211 88.125C92.6211 90.2083 93.0573 91.25 93.9297 91.25Z" fill="white"/>
<path d="M136.287 17.4531H136.209L132.752 19.7383V16.2715L136.287 13.9082H140.428V28H136.287V17.4531ZM149.275 28.3906C147.361 28.3906 145.851 27.7266 144.744 26.3984C143.624 25.0638 143.064 23.2376 143.064 20.9199C143.064 18.5957 143.628 16.7728 144.754 15.4512C145.861 14.1556 147.368 13.5078 149.275 13.5078C151.183 13.5078 152.69 14.1556 153.797 15.4512C154.917 16.7663 155.477 18.5859 155.477 20.9102C155.477 23.2279 154.92 25.054 153.807 26.3887C152.693 27.7233 151.183 28.3906 149.275 28.3906ZM149.275 25.207C149.874 25.207 150.35 24.8555 150.701 24.1523C151.072 23.3971 151.258 22.3197 151.258 20.9199C151.258 19.5202 151.072 18.4525 150.701 17.7168C150.356 17.0332 149.881 16.6914 149.275 16.6914C148.67 16.6914 148.195 17.0332 147.85 17.7168C147.472 18.4525 147.283 19.5202 147.283 20.9199C147.283 22.3197 147.472 23.3971 147.85 24.1523C148.201 24.8555 148.676 25.207 149.275 25.207ZM157.762 28L168.025 13.9082H171.346L161.082 28H157.762ZM172.762 24.4551C172.762 25.627 172.452 26.5514 171.834 27.2285C171.209 27.9121 170.363 28.2539 169.295 28.2539C168.227 28.2539 167.381 27.9121 166.756 27.2285C166.137 26.5514 165.828 25.627 165.828 24.4551C165.828 23.2897 166.137 22.3717 166.756 21.7012C167.368 21.0371 168.214 20.7051 169.295 20.7051C170.376 20.7051 171.225 21.0371 171.844 21.7012C172.456 22.3652 172.762 23.2832 172.762 24.4551ZM169.295 26.0273C169.738 26.0273 169.959 25.5033 169.959 24.4551C169.959 23.4395 169.738 22.9316 169.295 22.9316C168.859 22.9316 168.641 23.4427 168.641 24.4648C168.641 25.5065 168.859 26.0273 169.295 26.0273ZM163.553 17.0527C163.553 18.2246 163.243 19.1491 162.625 19.8262C162 20.5098 161.154 20.8516 160.086 20.8516C159.018 20.8516 158.172 20.5098 157.547 19.8262C156.928 19.1491 156.619 18.2246 156.619 17.0527C156.619 15.8874 156.928 14.9694 157.547 14.2988C158.159 13.6348 159.005 13.3027 160.086 13.3027C161.167 13.3027 162.016 13.6348 162.635 14.2988C163.247 14.9629 163.553 15.8809 163.553 17.0527ZM160.086 18.625C160.529 18.625 160.75 18.1009 160.75 17.0527C160.75 16.0371 160.529 15.5293 160.086 15.5293C159.65 15.5293 159.432 16.0404 159.432 17.0625C159.432 18.1042 159.65 18.625 160.086 18.625Z" fill="white"/>
<path d="M190.953 67.5312C190.953 65.2188 191.792 63.3594 193.469 61.9531C195.146 60.5365 197.375 59.8281 200.156 59.8281C202.865 59.8281 205.021 60.4583 206.625 61.7188C208.198 62.9688 208.984 64.625 208.984 66.6875C208.984 68.7812 207.719 70.9479 205.188 73.1875L199.891 77.875V78H209.25V83H191.344V78.5938L200.406 70.5781C201.875 69.2656 202.609 68.0365 202.609 66.8906C202.609 66.2656 202.375 65.75 201.906 65.3438C201.417 64.9271 200.755 64.7188 199.922 64.7188C199.057 64.7188 198.354 64.9792 197.812 65.5C197.26 66.0208 196.984 66.6927 196.984 67.5156V67.6562H190.953V67.5312ZM221.453 83.625C218.391 83.625 215.974 82.5625 214.203 80.4375C212.411 78.3021 211.516 75.3802 211.516 71.6719C211.516 67.9531 212.417 65.0365 214.219 62.9219C215.99 60.849 218.401 59.8125 221.453 59.8125C224.505 59.8125 226.917 60.849 228.688 62.9219C230.479 65.026 231.375 67.9375 231.375 71.6562C231.375 75.3646 230.484 78.2865 228.703 80.4219C226.922 82.5573 224.505 83.625 221.453 83.625ZM221.453 78.5312C222.411 78.5312 223.172 77.9688 223.734 76.8438C224.328 75.6354 224.625 73.9115 224.625 71.6719C224.625 69.4323 224.328 67.724 223.734 66.5469C223.182 65.4531 222.422 64.9062 221.453 64.9062C220.484 64.9062 219.724 65.4531 219.172 66.5469C218.568 67.724 218.266 69.4323 218.266 71.6719C218.266 73.9115 218.568 75.6354 219.172 76.8438C219.734 77.9688 220.495 78.5312 221.453 78.5312ZM235.031 83L251.453 60.4531H256.766L240.344 83H235.031ZM259.031 77.3281C259.031 79.2031 258.536 80.6823 257.547 81.7656C256.547 82.8594 255.193 83.4062 253.484 83.4062C251.776 83.4062 250.422 82.8594 249.422 81.7656C248.432 80.6823 247.938 79.2031 247.938 77.3281C247.938 75.4635 248.432 73.9948 249.422 72.9219C250.401 71.8594 251.755 71.3281 253.484 71.3281C255.214 71.3281 256.573 71.8594 257.562 72.9219C258.542 73.9844 259.031 75.4531 259.031 77.3281ZM253.484 79.8438C254.193 79.8438 254.547 79.0052 254.547 77.3281C254.547 75.7031 254.193 74.8906 253.484 74.8906C252.786 74.8906 252.438 75.7083 252.438 77.3438C252.438 79.0104 252.786 79.8438 253.484 79.8438ZM244.297 65.4844C244.297 67.3594 243.802 68.8385 242.812 69.9219C241.812 71.0156 240.458 71.5625 238.75 71.5625C237.042 71.5625 235.688 71.0156 234.688 69.9219C233.698 68.8385 233.203 67.3594 233.203 65.4844C233.203 63.6198 233.698 62.151 234.688 61.0781C235.667 60.0156 237.021 59.4844 238.75 59.4844C240.479 59.4844 241.839 60.0156 242.828 61.0781C243.807 62.1406 244.297 63.6094 244.297 65.4844ZM238.75 68C239.458 68 239.812 67.1615 239.812 65.4844C239.812 63.8594 239.458 63.0469 238.75 63.0469C238.052 63.0469 237.703 63.8646 237.703 65.5C237.703 67.1667 238.052 68 238.75 68Z" fill="white"/>
<path d="M219.145 163.344H219.051L214.902 166.086V161.926L219.145 159.09H224.113V176H219.145V163.344ZM234.59 176.469C232.582 176.469 230.934 175.953 229.645 174.922C228.363 173.891 227.715 172.566 227.699 170.949H232.164C232.266 171.473 232.543 171.898 232.996 172.227C233.457 172.555 234 172.719 234.625 172.719C235.328 172.719 235.898 172.496 236.336 172.051C236.766 171.605 236.98 171.031 236.98 170.328C236.98 169.586 236.766 168.988 236.336 168.535C235.906 168.082 235.336 167.855 234.625 167.855C233.609 167.855 232.84 168.266 232.316 169.086H227.969L228.719 159.09H240.543V162.84H232.539L232.281 166.59H232.375C233.047 165.215 234.293 164.527 236.113 164.527C237.715 164.527 239.035 165.062 240.074 166.133C241.113 167.195 241.633 168.555 241.633 170.211C241.633 172.094 240.988 173.605 239.699 174.746C238.41 175.895 236.707 176.469 234.59 176.469ZM244.188 176L256.504 159.09H260.488L248.172 176H244.188ZM262.188 171.746C262.188 173.152 261.816 174.262 261.074 175.074C260.324 175.895 259.309 176.305 258.027 176.305C256.746 176.305 255.73 175.895 254.98 175.074C254.238 174.262 253.867 173.152 253.867 171.746C253.867 170.348 254.238 169.246 254.98 168.441C255.715 167.645 256.73 167.246 258.027 167.246C259.324 167.246 260.344 167.645 261.086 168.441C261.82 169.238 262.188 170.34 262.188 171.746ZM258.027 173.633C258.559 173.633 258.824 173.004 258.824 171.746C258.824 170.527 258.559 169.918 258.027 169.918C257.504 169.918 257.242 170.531 257.242 171.758C257.242 173.008 257.504 173.633 258.027 173.633ZM251.137 162.863C251.137 164.27 250.766 165.379 250.023 166.191C249.273 167.012 248.258 167.422 246.977 167.422C245.695 167.422 244.68 167.012 243.93 166.191C243.188 165.379 242.816 164.27 242.816 162.863C242.816 161.465 243.188 160.363 243.93 159.559C244.664 158.762 245.68 158.363 246.977 158.363C248.273 158.363 249.293 158.762 250.035 159.559C250.77 160.355 251.137 161.457 251.137 162.863ZM246.977 164.75C247.508 164.75 247.773 164.121 247.773 162.863C247.773 161.645 247.508 161.035 246.977 161.035C246.453 161.035 246.191 161.648 246.191 162.875C246.191 164.125 246.453 164.75 246.977 164.75Z" fill="white"/>
<path d="M157.145 222.344H157.051L152.902 225.086V220.926L157.145 218.09H162.113V235H157.145V222.344ZM172.59 235.469C170.582 235.469 168.934 234.953 167.645 233.922C166.363 232.891 165.715 231.566 165.699 229.949H170.164C170.266 230.473 170.543 230.898 170.996 231.227C171.457 231.555 172 231.719 172.625 231.719C173.328 231.719 173.898 231.496 174.336 231.051C174.766 230.605 174.98 230.031 174.98 229.328C174.98 228.586 174.766 227.988 174.336 227.535C173.906 227.082 173.336 226.855 172.625 226.855C171.609 226.855 170.84 227.266 170.316 228.086H165.969L166.719 218.09H178.543V221.84H170.539L170.281 225.59H170.375C171.047 224.215 172.293 223.527 174.113 223.527C175.715 223.527 177.035 224.062 178.074 225.133C179.113 226.195 179.633 227.555 179.633 229.211C179.633 231.094 178.988 232.605 177.699 233.746C176.41 234.895 174.707 235.469 172.59 235.469ZM182.188 235L194.504 218.09H198.488L186.172 235H182.188ZM200.188 230.746C200.188 232.152 199.816 233.262 199.074 234.074C198.324 234.895 197.309 235.305 196.027 235.305C194.746 235.305 193.73 234.895 192.98 234.074C192.238 233.262 191.867 232.152 191.867 230.746C191.867 229.348 192.238 228.246 192.98 227.441C193.715 226.645 194.73 226.246 196.027 226.246C197.324 226.246 198.344 226.645 199.086 227.441C199.82 228.238 200.188 229.34 200.188 230.746ZM196.027 232.633C196.559 232.633 196.824 232.004 196.824 230.746C196.824 229.527 196.559 228.918 196.027 228.918C195.504 228.918 195.242 229.531 195.242 230.758C195.242 232.008 195.504 232.633 196.027 232.633ZM189.137 221.863C189.137 223.27 188.766 224.379 188.023 225.191C187.273 226.012 186.258 226.422 184.977 226.422C183.695 226.422 182.68 226.012 181.93 225.191C181.188 224.379 180.816 223.27 180.816 221.863C180.816 220.465 181.188 219.363 181.93 218.559C182.664 217.762 183.68 217.363 184.977 217.363C186.273 217.363 187.293 217.762 188.035 218.559C188.77 219.355 189.137 220.457 189.137 221.863ZM184.977 223.75C185.508 223.75 185.773 223.121 185.773 221.863C185.773 220.645 185.508 220.035 184.977 220.035C184.453 220.035 184.191 220.648 184.191 221.875C184.191 223.125 184.453 223.75 184.977 223.75Z" fill="white"/>
<path d="M32.4932 148.113C31.9098 148.113 31.4176 147.913 31.0166 147.512C30.6156 147.111 30.415 146.618 30.415 146.035C30.415 145.452 30.6156 144.96 31.0166 144.559C31.4176 144.158 31.9098 143.957 32.4932 143.957C33.0765 143.957 33.5687 144.158 33.9697 144.559C34.3708 144.96 34.5713 145.452 34.5713 146.035C34.5713 146.618 34.3708 147.111 33.9697 147.512C33.5687 147.913 33.0765 148.113 32.4932 148.113ZM48.291 150.232C46.9512 150.232 45.8916 149.77 45.1123 148.845C44.3285 147.92 43.9365 146.662 43.9365 145.071C43.9365 143.481 44.3262 142.221 45.1055 141.291C45.8848 140.366 46.9443 139.903 48.2842 139.903C49.3232 139.903 50.2119 140.2 50.9502 140.792C51.6885 141.384 52.1305 142.157 52.2764 143.109H51.0254C50.8613 142.471 50.5332 141.968 50.041 141.599C49.5488 141.225 48.9632 141.038 48.2842 141.038C47.3363 141.038 46.5866 141.4 46.0352 142.125C45.4792 142.85 45.2012 143.832 45.2012 145.071C45.2012 146.311 45.4792 147.291 46.0352 148.011C46.5911 148.735 47.3431 149.098 48.291 149.098C48.9792 149.098 49.5671 148.934 50.0547 148.605C50.5469 148.273 50.8704 147.822 51.0254 147.252H52.2764C52.1123 148.159 51.6702 148.881 50.9502 149.419C50.2256 149.961 49.3392 150.232 48.291 150.232ZM57.4922 149.07C58.1895 149.07 58.7272 148.829 59.1055 148.346C59.4837 147.867 59.6729 147.19 59.6729 146.315C59.6729 145.44 59.4837 144.761 59.1055 144.278C58.7272 143.8 58.1895 143.561 57.4922 143.561C56.7949 143.561 56.2572 143.8 55.8789 144.278C55.5007 144.761 55.3115 145.44 55.3115 146.315C55.3115 147.19 55.5007 147.867 55.8789 148.346C56.2572 148.829 56.7949 149.07 57.4922 149.07ZM57.4922 150.13C56.444 150.13 55.6146 149.79 55.0039 149.111C54.3978 148.428 54.0947 147.496 54.0947 146.315C54.0947 145.131 54.3978 144.199 55.0039 143.52C55.61 142.84 56.4395 142.501 57.4922 142.501C58.5449 142.501 59.3743 142.84 59.9805 143.52C60.5866 144.199 60.8896 145.131 60.8896 146.315C60.8896 147.496 60.5866 148.428 59.9805 149.111C59.3698 149.79 58.5404 150.13 57.4922 150.13ZM64.041 143.615V150H62.8652V142.631H67.582V143.615H64.041ZM70.8018 146.767C70.7197 147.86 70.5306 148.662 70.2344 149.173C69.8926 149.765 69.3594 150.062 68.6348 150.062C68.4661 150.062 68.3226 150.036 68.2041 149.986V148.906C68.3135 148.943 68.4365 148.961 68.5732 148.961C68.9196 148.961 69.1839 148.76 69.3662 148.359C69.5257 148.008 69.6305 147.468 69.6807 146.739L69.9678 142.631H74.7871V150H73.6113V143.615H71.0342L70.8018 146.767ZM79.4014 149.098C80.0075 149.098 80.5088 148.922 80.9053 148.571C81.3063 148.22 81.5068 147.781 81.5068 147.252V146.575L79.5244 146.705C78.4489 146.778 77.9111 147.179 77.9111 147.908C77.9111 148.277 78.0524 148.569 78.335 148.783C78.6084 148.993 78.9639 149.098 79.4014 149.098ZM79.1826 150.13C78.458 150.13 77.8656 149.932 77.4053 149.535C76.9313 149.134 76.6943 148.601 76.6943 147.936C76.6943 147.279 76.9268 146.764 77.3916 146.391C77.8564 146.017 78.5195 145.805 79.3809 145.755L81.5068 145.625V144.955C81.5068 144.016 80.9508 143.547 79.8389 143.547C78.9046 143.547 78.3509 143.852 78.1777 144.463H76.9883C77.0658 143.875 77.3711 143.401 77.9043 143.041C78.4329 142.681 79.0915 142.501 79.8799 142.501C80.7731 142.501 81.4658 142.717 81.958 143.15C82.4411 143.583 82.6826 144.185 82.6826 144.955V150H81.5615V148.913H81.4521C80.96 149.724 80.2035 150.13 79.1826 150.13ZM89.9971 144.887C89.8968 144.499 89.6895 144.187 89.375 143.95C89.0286 143.69 88.6025 143.561 88.0967 143.561C87.4359 143.561 86.9095 143.807 86.5176 144.299C86.1302 144.791 85.9365 145.454 85.9365 146.288C85.9365 147.136 86.1325 147.812 86.5244 148.318C86.9163 148.82 87.4404 149.07 88.0967 149.07C89.1357 149.07 89.7692 148.64 89.9971 147.778H91.1865C91.0771 148.476 90.7581 149.036 90.2295 149.46C89.6735 149.907 88.9648 150.13 88.1035 150.13C87.069 150.13 86.2464 149.784 85.6357 149.091C85.0251 148.394 84.7197 147.459 84.7197 146.288C84.7197 145.14 85.0251 144.221 85.6357 143.533C86.2464 142.845 87.0667 142.501 88.0967 142.501C88.958 142.501 89.6712 142.733 90.2363 143.198C90.7604 143.636 91.0771 144.199 91.1865 144.887H89.9971ZM96.0879 149.07C96.7852 149.07 97.3229 148.829 97.7012 148.346C98.0794 147.867 98.2686 147.19 98.2686 146.315C98.2686 145.44 98.0794 144.761 97.7012 144.278C97.3229 143.8 96.7852 143.561 96.0879 143.561C95.3906 143.561 94.8529 143.8 94.4746 144.278C94.0964 144.761 93.9072 145.44 93.9072 146.315C93.9072 147.19 94.0964 147.867 94.4746 148.346C94.8529 148.829 95.3906 149.07 96.0879 149.07ZM96.0879 150.13C95.0397 150.13 94.2103 149.79 93.5996 149.111C92.9935 148.428 92.6904 147.496 92.6904 146.315C92.6904 145.131 92.9935 144.199 93.5996 143.52C94.2057 142.84 95.0352 142.501 96.0879 142.501C97.1406 142.501 97.9701 142.84 98.5762 143.52C99.1823 144.199 99.4854 145.131 99.4854 146.315C99.4854 147.496 99.1823 148.428 98.5762 149.111C97.9655 149.79 97.1361 150.13 96.0879 150.13ZM102.637 143.615V145.693H104.277C105.202 145.693 105.665 145.342 105.665 144.641C105.665 143.957 105.266 143.615 104.469 143.615H102.637ZM102.637 146.678V149.016H104.605C105.526 149.016 105.986 148.631 105.986 147.86C105.986 147.072 105.451 146.678 104.38 146.678H102.637ZM101.461 142.631H104.619C105.307 142.631 105.85 142.802 106.246 143.144C106.633 143.481 106.827 143.939 106.827 144.518C106.827 144.882 106.713 145.213 106.485 145.509C106.253 145.81 105.966 145.996 105.624 146.069V146.179C106.089 146.243 106.46 146.432 106.738 146.746C107.016 147.056 107.155 147.434 107.155 147.881C107.155 148.528 106.934 149.041 106.492 149.419C106.041 149.806 105.421 150 104.633 150H101.461V142.631ZM111.448 149.098C112.054 149.098 112.556 148.922 112.952 148.571C113.353 148.22 113.554 147.781 113.554 147.252V146.575L111.571 146.705C110.496 146.778 109.958 147.179 109.958 147.908C109.958 148.277 110.099 148.569 110.382 148.783C110.655 148.993 111.011 149.098 111.448 149.098ZM111.229 150.13C110.505 150.13 109.912 149.932 109.452 149.535C108.978 149.134 108.741 148.601 108.741 147.936C108.741 147.279 108.974 146.764 109.438 146.391C109.903 146.017 110.566 145.805 111.428 145.755L113.554 145.625V144.955C113.554 144.016 112.998 143.547 111.886 143.547C110.951 143.547 110.398 143.852 110.225 144.463H109.035C109.113 143.875 109.418 143.401 109.951 143.041C110.48 142.681 111.138 142.501 111.927 142.501C112.82 142.501 113.513 142.717 114.005 143.15C114.488 143.583 114.729 144.185 114.729 144.955V150H113.608V148.913H113.499C113.007 149.724 112.25 150.13 111.229 150.13ZM117.129 142.631H118.305V145.68H122.051V142.631H123.227V150H122.051V146.664H118.305V150H117.129V142.631ZM125.564 150V142.631H126.74V148.127H126.85L130.589 142.631H131.765V150H130.589V144.504H130.479L126.74 150H125.564ZM137.056 143.54C136.468 143.54 135.985 143.738 135.606 144.135C135.228 144.531 135.016 145.055 134.971 145.707H139.031C139.018 145.055 138.831 144.531 138.471 144.135C138.111 143.738 137.639 143.54 137.056 143.54ZM140.173 148.093C139.995 148.731 139.635 149.228 139.093 149.583C138.546 149.948 137.871 150.13 137.069 150.13C136.049 150.13 135.24 149.786 134.643 149.098C134.046 148.414 133.747 147.489 133.747 146.322C133.747 145.16 134.048 144.233 134.649 143.54C135.251 142.847 136.058 142.501 137.069 142.501C138.063 142.501 138.844 142.831 139.414 143.492C139.984 144.153 140.269 145.058 140.269 146.206V146.657H134.971V146.712C135.003 147.441 135.208 148.02 135.586 148.448C135.969 148.877 136.472 149.091 137.097 149.091C138.049 149.091 138.683 148.758 138.997 148.093H140.173ZM46.6367 167.123C45.8346 167.123 45.1693 166.941 44.6406 166.576C44.1074 166.212 43.8089 165.724 43.7451 165.113H44.9551C45.028 165.437 45.2103 165.688 45.502 165.865C45.7982 166.043 46.1764 166.132 46.6367 166.132C47.1699 166.132 47.5869 166.016 47.8877 165.783C48.1794 165.56 48.3252 165.261 48.3252 164.888C48.3252 164.072 47.7624 163.664 46.6367 163.664H45.5225V162.68H46.6367C47.5755 162.68 48.0449 162.313 48.0449 161.579C48.0449 161.251 47.931 160.993 47.7031 160.807C47.457 160.602 47.1016 160.499 46.6367 160.499C46.1947 160.499 45.8301 160.588 45.543 160.766C45.2559 160.943 45.0872 161.18 45.0371 161.477H43.875C43.9525 160.87 44.2396 160.39 44.7363 160.034C45.2331 159.679 45.8665 159.501 46.6367 159.501C47.4525 159.501 48.0882 159.686 48.5439 160.055C48.986 160.41 49.207 160.889 49.207 161.49C49.207 161.859 49.0977 162.19 48.8789 162.481C48.6556 162.773 48.3662 162.96 48.0107 163.042V163.151C48.9997 163.366 49.4941 163.924 49.4941 164.826C49.4941 165.51 49.2321 166.063 48.708 166.487C48.1839 166.911 47.4935 167.123 46.6367 167.123ZM53.7529 166.098C54.359 166.098 54.8604 165.922 55.2568 165.571C55.6579 165.22 55.8584 164.781 55.8584 164.252V163.575L53.876 163.705C52.8005 163.778 52.2627 164.179 52.2627 164.908C52.2627 165.277 52.404 165.569 52.6865 165.783C52.96 165.993 53.3154 166.098 53.7529 166.098ZM53.5342 167.13C52.8096 167.13 52.2171 166.932 51.7568 166.535C51.2829 166.134 51.0459 165.601 51.0459 164.936C51.0459 164.279 51.2783 163.764 51.7432 163.391C52.208 163.017 52.8711 162.805 53.7324 162.755L55.8584 162.625V161.955C55.8584 161.016 55.3024 160.547 54.1904 160.547C53.2562 160.547 52.7025 160.852 52.5293 161.463H51.3398C51.4173 160.875 51.7227 160.401 52.2559 160.041C52.7845 159.681 53.443 159.501 54.2314 159.501C55.1247 159.501 55.8174 159.717 56.3096 160.15C56.7926 160.583 57.0342 161.185 57.0342 161.955V167H55.9131V165.913H55.8037C55.3115 166.724 54.555 167.13 53.5342 167.13ZM63.3574 163.377V160.615H61.9697C61.4821 160.615 61.0947 160.741 60.8076 160.991C60.5205 161.246 60.377 161.597 60.377 162.044C60.377 162.436 60.5228 162.755 60.8145 163.001C61.1061 163.252 61.4912 163.377 61.9697 163.377H63.3574ZM63.3574 164.361H62.0928L60.2129 167H58.8115L60.8691 164.143C60.3496 163.997 59.9417 163.742 59.6455 163.377C59.3493 163.012 59.2012 162.577 59.2012 162.071C59.2012 161.315 59.4518 160.718 59.9531 160.28C60.4499 159.847 61.1221 159.631 61.9697 159.631H64.5332V167H63.3574V164.361ZM68.0469 160.615V162.693H69.6875C70.6126 162.693 71.0752 162.342 71.0752 161.641C71.0752 160.957 70.6764 160.615 69.8789 160.615H68.0469ZM68.0469 163.678V166.016H70.0156C70.9362 166.016 71.3965 165.631 71.3965 164.86C71.3965 164.072 70.861 163.678 69.79 163.678H68.0469ZM66.8711 159.631H70.0293C70.7174 159.631 71.2598 159.802 71.6562 160.144C72.0436 160.481 72.2373 160.939 72.2373 161.518C72.2373 161.882 72.1234 162.213 71.8955 162.509C71.6631 162.81 71.376 162.996 71.0342 163.069V163.179C71.499 163.243 71.8704 163.432 72.1484 163.746C72.4264 164.056 72.5654 164.434 72.5654 164.881C72.5654 165.528 72.3444 166.041 71.9023 166.419C71.4512 166.806 70.8314 167 70.043 167H66.8711V159.631ZM77.5488 166.07C78.2461 166.07 78.7839 165.829 79.1621 165.346C79.5404 164.867 79.7295 164.19 79.7295 163.315C79.7295 162.44 79.5404 161.761 79.1621 161.278C78.7839 160.8 78.2461 160.561 77.5488 160.561C76.8516 160.561 76.3138 160.8 75.9355 161.278C75.5573 161.761 75.3682 162.44 75.3682 163.315C75.3682 164.19 75.5573 164.867 75.9355 165.346C76.3138 165.829 76.8516 166.07 77.5488 166.07ZM77.5488 167.13C76.5007 167.13 75.6712 166.79 75.0605 166.111C74.4544 165.428 74.1514 164.496 74.1514 163.315C74.1514 162.131 74.4544 161.199 75.0605 160.52C75.6667 159.84 76.4961 159.501 77.5488 159.501C78.6016 159.501 79.431 159.84 80.0371 160.52C80.6432 161.199 80.9463 162.131 80.9463 163.315C80.9463 164.496 80.6432 165.428 80.0371 166.111C79.4264 166.79 78.597 167.13 77.5488 167.13ZM84.4189 162.714L87.3379 159.631H88.7666L85.3896 163.104L88.8965 167H87.3721L84.4189 163.644H84.0977V167H82.9219V159.631H84.0977V162.714H84.4189ZM90.1201 169.509L90.7764 165.619H92.1572L91.1455 169.509H90.1201ZM91.4463 161.812C91.2048 161.812 90.9951 161.725 90.8174 161.552C90.6442 161.374 90.5576 161.164 90.5576 160.923C90.5576 160.677 90.6442 160.467 90.8174 160.294C90.9951 160.121 91.2048 160.034 91.4463 160.034C91.6924 160.034 91.902 160.121 92.0752 160.294C92.2484 160.467 92.335 160.677 92.335 160.923C92.335 161.164 92.2484 161.374 92.0752 161.552C91.902 161.725 91.6924 161.812 91.4463 161.812ZM32.4932 182.113C31.9098 182.113 31.4176 181.913 31.0166 181.512C30.6156 181.111 30.415 180.618 30.415 180.035C30.415 179.452 30.6156 178.96 31.0166 178.559C31.4176 178.158 31.9098 177.957 32.4932 177.957C33.0765 177.957 33.5687 178.158 33.9697 178.559C34.3708 178.96 34.5713 179.452 34.5713 180.035C34.5713 180.618 34.3708 181.111 33.9697 181.512C33.5687 181.913 33.0765 182.113 32.4932 182.113ZM45.8369 178.415H47.1699C47.7487 178.415 48.2249 178.251 48.5986 177.923C48.9678 177.59 49.1523 177.166 49.1523 176.651C49.1523 176.15 48.9814 175.751 48.6396 175.455C48.2887 175.15 47.8057 174.997 47.1904 174.997C46.5798 174.997 46.0876 175.145 45.7139 175.441C45.3356 175.733 45.1214 176.141 45.0713 176.665H43.875C43.9388 175.808 44.2692 175.134 44.8662 174.642C45.4678 174.149 46.2585 173.903 47.2383 173.903C48.1634 173.903 48.9222 174.152 49.5146 174.648C50.1071 175.141 50.4033 175.772 50.4033 176.542C50.4033 177.08 50.2415 177.558 49.918 177.978C49.5898 178.401 49.1637 178.677 48.6396 178.805V178.914C49.2868 178.982 49.8086 179.226 50.2051 179.646C50.6198 180.088 50.8271 180.653 50.8271 181.341C50.8271 182.152 50.4854 182.838 49.8018 183.398C49.1182 183.954 48.2796 184.232 47.2861 184.232C46.2425 184.232 45.3926 183.975 44.7363 183.46C44.0755 182.95 43.7223 182.273 43.6768 181.43H44.8662C44.9209 181.949 45.1647 182.364 45.5977 182.674C46.0352 182.984 46.5934 183.139 47.2725 183.139C47.9606 183.139 48.5166 182.965 48.9404 182.619C49.3551 182.282 49.5625 181.844 49.5625 181.307C49.5625 180.746 49.3597 180.309 48.9541 179.994C48.5394 179.671 47.9629 179.509 47.2246 179.509H45.8369V178.415ZM53.9238 177.615V179.693H55.5645C56.4896 179.693 56.9521 179.342 56.9521 178.641C56.9521 177.957 56.5534 177.615 55.7559 177.615H53.9238ZM53.9238 180.678V183.016H55.8926C56.8132 183.016 57.2734 182.631 57.2734 181.86C57.2734 181.072 56.738 180.678 55.667 180.678H53.9238ZM52.748 176.631H55.9062C56.5944 176.631 57.1367 176.802 57.5332 177.144C57.9206 177.481 58.1143 177.939 58.1143 178.518C58.1143 178.882 58.0003 179.213 57.7725 179.509C57.54 179.81 57.2529 179.996 56.9111 180.069V180.179C57.376 180.243 57.7474 180.432 58.0254 180.746C58.3034 181.056 58.4424 181.434 58.4424 181.881C58.4424 182.528 58.2214 183.041 57.7793 183.419C57.3281 183.806 56.7083 184 55.9199 184H52.748V176.631ZM63.4258 183.07C64.123 183.07 64.6608 182.829 65.0391 182.346C65.4173 181.867 65.6064 181.19 65.6064 180.315C65.6064 179.44 65.4173 178.761 65.0391 178.278C64.6608 177.8 64.123 177.561 63.4258 177.561C62.7285 177.561 62.1908 177.8 61.8125 178.278C61.4342 178.761 61.2451 179.44 61.2451 180.315C61.2451 181.19 61.4342 181.867 61.8125 182.346C62.1908 182.829 62.7285 183.07 63.4258 183.07ZM63.4258 184.13C62.3776 184.13 61.5482 183.79 60.9375 183.111C60.3314 182.428 60.0283 181.496 60.0283 180.315C60.0283 179.131 60.3314 178.199 60.9375 177.52C61.5436 176.84 62.373 176.501 63.4258 176.501C64.4785 176.501 65.3079 176.84 65.9141 177.52C66.5202 178.199 66.8232 179.131 66.8232 180.315C66.8232 181.496 66.5202 182.428 65.9141 183.111C65.3034 183.79 64.474 184.13 63.4258 184.13ZM68.7988 176.631H69.9746V179.68H73.7207V176.631H74.8965V184H73.7207V180.664H69.9746V184H68.7988V176.631ZM78.7314 179.714L81.6504 176.631H83.0791L79.7021 180.104L83.209 184H81.6846L78.7314 180.644H78.4102V184H77.2344V176.631H78.4102V179.714H78.7314ZM84.8496 184V176.631H86.0254V182.127H86.1348L89.874 176.631H91.0498V184H89.874V178.504H89.7646L86.0254 184H84.8496ZM92.9775 186.509L93.6338 182.619H95.0146L94.0029 186.509H92.9775ZM94.3037 178.812C94.0622 178.812 93.8525 178.725 93.6748 178.552C93.5016 178.374 93.415 178.164 93.415 177.923C93.415 177.677 93.5016 177.467 93.6748 177.294C93.8525 177.121 94.0622 177.034 94.3037 177.034C94.5498 177.034 94.7594 177.121 94.9326 177.294C95.1058 177.467 95.1924 177.677 95.1924 177.923C95.1924 178.164 95.1058 178.374 94.9326 178.552C94.7594 178.725 94.5498 178.812 94.3037 178.812ZM32.4932 199.113C31.9098 199.113 31.4176 198.913 31.0166 198.512C30.6156 198.111 30.415 197.618 30.415 197.035C30.415 196.452 30.6156 195.96 31.0166 195.559C31.4176 195.158 31.9098 194.957 32.4932 194.957C33.0765 194.957 33.5687 195.158 33.9697 195.559C34.3708 195.96 34.5713 196.452 34.5713 197.035C34.5713 197.618 34.3708 198.111 33.9697 198.512C33.5687 198.913 33.0765 199.113 32.4932 199.113ZM50.834 201V192.257H45.5566V201H44.3193V191.136H52.0508V201H50.834ZM57.5879 200.07C58.2852 200.07 58.8229 199.829 59.2012 199.346C59.5794 198.867 59.7686 198.19 59.7686 197.315C59.7686 196.44 59.5794 195.761 59.2012 195.278C58.8229 194.8 58.2852 194.561 57.5879 194.561C56.8906 194.561 56.3529 194.8 55.9746 195.278C55.5964 195.761 55.4072 196.44 55.4072 197.315C55.4072 198.19 55.5964 198.867 55.9746 199.346C56.3529 199.829 56.8906 200.07 57.5879 200.07ZM57.5879 201.13C56.5397 201.13 55.7103 200.79 55.0996 200.111C54.4935 199.428 54.1904 198.496 54.1904 197.315C54.1904 196.131 54.4935 195.199 55.0996 194.52C55.7057 193.84 56.5352 193.501 57.5879 193.501C58.6406 193.501 59.4701 193.84 60.0762 194.52C60.6823 195.199 60.9854 196.131 60.9854 197.315C60.9854 198.496 60.6823 199.428 60.0762 200.111C59.4655 200.79 58.6361 201.13 57.5879 201.13ZM67.2676 201V197.678H67.1582C66.5977 198.143 65.9551 198.375 65.2305 198.375C64.4329 198.375 63.8063 198.131 63.3506 197.644C62.9085 197.17 62.6875 196.534 62.6875 195.736V193.631H63.8633V195.736C63.8633 196.229 63.9886 196.616 64.2393 196.898C64.499 197.186 64.859 197.329 65.3193 197.329C66.1807 197.329 66.8301 197.019 67.2676 196.399V193.631H68.4434V201H67.2676ZM76.1201 194.615H73.7275V201H72.5518V194.615H70.1592V193.631H76.1201V194.615ZM80.0439 200.098C80.6501 200.098 81.1514 199.922 81.5479 199.571C81.9489 199.22 82.1494 198.781 82.1494 198.252V197.575L80.167 197.705C79.0915 197.778 78.5537 198.179 78.5537 198.908C78.5537 199.277 78.695 199.569 78.9775 199.783C79.251 199.993 79.6064 200.098 80.0439 200.098ZM79.8252 201.13C79.1006 201.13 78.5081 200.932 78.0479 200.535C77.5739 200.134 77.3369 199.601 77.3369 198.936C77.3369 198.279 77.5693 197.764 78.0342 197.391C78.499 197.017 79.1621 196.805 80.0234 196.755L82.1494 196.625V195.955C82.1494 195.016 81.5934 194.547 80.4814 194.547C79.5472 194.547 78.9935 194.852 78.8203 195.463H77.6309C77.7083 194.875 78.0137 194.401 78.5469 194.041C79.0755 193.681 79.734 193.501 80.5225 193.501C81.4157 193.501 82.1084 193.717 82.6006 194.15C83.0837 194.583 83.3252 195.185 83.3252 195.955V201H82.2041V199.913H82.0947C81.6025 200.724 80.846 201.13 79.8252 201.13Z" fill="white"/>
<path d="M187.493 108.113C186.91 108.113 186.418 107.913 186.017 107.512C185.616 107.111 185.415 106.618 185.415 106.035C185.415 105.452 185.616 104.96 186.017 104.559C186.418 104.158 186.91 103.957 187.493 103.957C188.076 103.957 188.569 104.158 188.97 104.559C189.371 104.96 189.571 105.452 189.571 106.035C189.571 106.618 189.371 107.111 188.97 107.512C188.569 107.913 188.076 108.113 187.493 108.113ZM200.29 110.068C200.044 110.068 199.862 110.039 199.743 109.979V108.872C199.889 108.909 200.071 108.927 200.29 108.927C200.996 108.927 201.534 108.583 201.903 107.895L198.533 100.136H199.846L202.491 106.527H202.601L205.185 100.136H206.463L203.441 107.177C202.999 108.207 202.582 108.922 202.19 109.323C201.703 109.82 201.069 110.068 200.29 110.068ZM213.101 103.615H210.708V110H209.532V103.615H207.14V102.631H213.101V103.615ZM217.578 109.07C218.275 109.07 218.813 108.829 219.191 108.346C219.57 107.867 219.759 107.19 219.759 106.315C219.759 105.44 219.57 104.761 219.191 104.278C218.813 103.8 218.275 103.561 217.578 103.561C216.881 103.561 216.343 103.8 215.965 104.278C215.587 104.761 215.397 105.44 215.397 106.315C215.397 107.19 215.587 107.867 215.965 108.346C216.343 108.829 216.881 109.07 217.578 109.07ZM217.578 110.13C216.53 110.13 215.701 109.79 215.09 109.111C214.484 108.428 214.181 107.496 214.181 106.315C214.181 105.131 214.484 104.199 215.09 103.52C215.696 102.84 216.525 102.501 217.578 102.501C218.631 102.501 219.46 102.84 220.066 103.52C220.673 104.199 220.976 105.131 220.976 106.315C220.976 107.496 220.673 108.428 220.066 109.111C219.456 109.79 218.626 110.13 217.578 110.13ZM227.258 110V106.678H227.148C226.588 107.143 225.945 107.375 225.221 107.375C224.423 107.375 223.797 107.131 223.341 106.644C222.899 106.17 222.678 105.534 222.678 104.736V102.631H223.854V104.736C223.854 105.229 223.979 105.616 224.229 105.898C224.489 106.186 224.849 106.329 225.31 106.329C226.171 106.329 226.82 106.019 227.258 105.399V102.631H228.434V110H227.258ZM230.771 102.631H231.947V105.68H235.693V102.631H236.869V110H235.693V106.664H231.947V110H230.771V102.631ZM242.153 103.54C241.565 103.54 241.082 103.738 240.704 104.135C240.326 104.531 240.114 105.055 240.068 105.707H244.129C244.115 105.055 243.928 104.531 243.568 104.135C243.208 103.738 242.737 103.54 242.153 103.54ZM245.271 108.093C245.093 108.731 244.733 109.228 244.19 109.583C243.644 109.948 242.969 110.13 242.167 110.13C241.146 110.13 240.337 109.786 239.74 109.098C239.143 108.414 238.845 107.489 238.845 106.322C238.845 105.16 239.146 104.233 239.747 103.54C240.349 102.847 241.155 102.501 242.167 102.501C243.16 102.501 243.942 102.831 244.512 103.492C245.081 104.153 245.366 105.058 245.366 106.206V106.657H240.068V106.712C240.1 107.441 240.305 108.02 240.684 108.448C241.066 108.877 241.57 109.091 242.194 109.091C243.147 109.091 243.78 108.758 244.095 108.093H245.271ZM247.342 102.631H248.518V105.68H252.264V102.631H253.439V110H252.264V106.664H248.518V110H247.342V102.631ZM255.777 110V102.631H256.953V108.127H257.062L260.802 102.631H261.978V110H260.802V104.504H260.692L256.953 110H255.777ZM267.269 103.54C266.681 103.54 266.198 103.738 265.819 104.135C265.441 104.531 265.229 105.055 265.184 105.707H269.244C269.23 105.055 269.044 104.531 268.684 104.135C268.324 103.738 267.852 103.54 267.269 103.54ZM270.386 108.093C270.208 108.731 269.848 109.228 269.306 109.583C268.759 109.948 268.084 110.13 267.282 110.13C266.261 110.13 265.452 109.786 264.855 109.098C264.258 108.414 263.96 107.489 263.96 106.322C263.96 105.16 264.261 104.233 264.862 103.54C265.464 102.847 266.271 102.501 267.282 102.501C268.276 102.501 269.057 102.831 269.627 103.492C270.197 104.153 270.481 105.058 270.481 106.206V106.657H265.184V106.712C265.215 107.441 265.421 108.02 265.799 108.448C266.182 108.877 266.685 109.091 267.31 109.091C268.262 109.091 268.896 108.758 269.21 108.093H270.386ZM199.162 119.631H200.338V122.68H204.084V119.631H205.26V127H204.084V123.664H200.338V127H199.162V119.631ZM209.874 126.098C210.48 126.098 210.981 125.922 211.378 125.571C211.779 125.22 211.979 124.781 211.979 124.252V123.575L209.997 123.705C208.922 123.778 208.384 124.179 208.384 124.908C208.384 125.277 208.525 125.569 208.808 125.783C209.081 125.993 209.437 126.098 209.874 126.098ZM209.655 127.13C208.931 127.13 208.338 126.932 207.878 126.535C207.404 126.134 207.167 125.601 207.167 124.936C207.167 124.279 207.399 123.764 207.864 123.391C208.329 123.017 208.992 122.805 209.854 122.755L211.979 122.625V121.955C211.979 121.016 211.424 120.547 210.312 120.547C209.377 120.547 208.824 120.852 208.65 121.463H207.461C207.538 120.875 207.844 120.401 208.377 120.041C208.906 119.681 209.564 119.501 210.353 119.501C211.246 119.501 211.938 119.717 212.431 120.15C212.914 120.583 213.155 121.185 213.155 121.955V127H212.034V125.913H211.925C211.433 126.724 210.676 127.13 209.655 127.13ZM217.325 123.767C217.243 124.86 217.054 125.662 216.758 126.173C216.416 126.765 215.883 127.062 215.158 127.062C214.99 127.062 214.846 127.036 214.728 126.986V125.906C214.837 125.943 214.96 125.961 215.097 125.961C215.443 125.961 215.707 125.76 215.89 125.359C216.049 125.008 216.154 124.468 216.204 123.739L216.491 119.631H221.311V127H220.135V120.615H217.558L217.325 123.767ZM223.648 127V119.631H224.824V125.127H224.934L228.673 119.631H229.849V127H228.673V121.504H228.563L224.824 127H223.648ZM236.637 127V123.678H236.527C235.967 124.143 235.324 124.375 234.6 124.375C233.802 124.375 233.175 124.131 232.72 123.644C232.278 123.17 232.057 122.534 232.057 121.736V119.631H233.232V121.736C233.232 122.229 233.358 122.616 233.608 122.898C233.868 123.186 234.228 123.329 234.688 123.329C235.55 123.329 236.199 123.019 236.637 122.399V119.631H237.812V127H236.637ZM240.15 127V119.631H241.326V125.127H241.436L245.175 119.631H246.351V127H245.175V121.504H245.065L241.326 127H240.15ZM252.619 123.377V120.615H251.231C250.744 120.615 250.356 120.741 250.069 120.991C249.782 121.246 249.639 121.597 249.639 122.044C249.639 122.436 249.785 122.755 250.076 123.001C250.368 123.252 250.753 123.377 251.231 123.377H252.619ZM252.619 124.361H251.354L249.475 127H248.073L250.131 124.143C249.611 123.997 249.203 123.742 248.907 123.377C248.611 123.012 248.463 122.577 248.463 122.071C248.463 121.315 248.714 120.718 249.215 120.28C249.712 119.847 250.384 119.631 251.231 119.631H253.795V127H252.619V124.361Z" fill="white"/>
<path d="M201.994 193.383C201.494 193.383 201.072 193.211 200.729 192.867C200.385 192.523 200.213 192.102 200.213 191.602C200.213 191.102 200.385 190.68 200.729 190.336C201.072 189.992 201.494 189.82 201.994 189.82C202.494 189.82 202.916 189.992 203.26 190.336C203.604 190.68 203.775 191.102 203.775 191.602C203.775 192.102 203.604 192.523 203.26 192.867C202.916 193.211 202.494 193.383 201.994 193.383ZM215.324 186.545C216.125 186.545 216.775 186.799 217.275 187.307C217.779 187.818 218.031 188.477 218.031 189.281C218.031 190.07 217.777 190.719 217.27 191.227C216.758 191.73 216.105 191.982 215.312 191.982H213.186V195H212.131V186.545H215.324ZM213.186 191.045H215.049C215.65 191.045 216.117 190.891 216.449 190.582C216.781 190.273 216.947 189.84 216.947 189.281C216.947 188.699 216.783 188.254 216.455 187.945C216.131 187.637 215.662 187.482 215.049 187.482H213.186V191.045ZM221.693 194.227C222.213 194.227 222.643 194.076 222.982 193.775C223.326 193.475 223.498 193.098 223.498 192.645V192.064L221.799 192.176C220.877 192.238 220.416 192.582 220.416 193.207C220.416 193.523 220.537 193.773 220.779 193.957C221.014 194.137 221.318 194.227 221.693 194.227ZM221.506 195.111C220.885 195.111 220.377 194.941 219.982 194.602C219.576 194.258 219.373 193.801 219.373 193.23C219.373 192.668 219.572 192.227 219.971 191.906C220.369 191.586 220.938 191.404 221.676 191.361L223.498 191.25V190.676C223.498 189.871 223.021 189.469 222.068 189.469C221.268 189.469 220.793 189.73 220.645 190.254H219.625C219.691 189.75 219.953 189.344 220.41 189.035C220.863 188.727 221.428 188.572 222.104 188.572C222.869 188.572 223.463 188.758 223.885 189.129C224.299 189.5 224.506 190.016 224.506 190.676V195H223.545V194.068H223.451C223.029 194.764 222.381 195.111 221.506 195.111ZM229.193 194.203C229.799 194.203 230.268 194.002 230.6 193.6C230.928 193.197 231.092 192.631 231.092 191.9C231.092 191.205 230.928 190.668 230.6 190.289C230.268 189.906 229.799 189.715 229.193 189.715C228.588 189.715 228.119 189.906 227.787 190.289C227.459 190.668 227.295 191.205 227.295 191.9C227.295 192.631 227.459 193.197 227.787 193.6C228.119 194.002 228.588 194.203 229.193 194.203ZM227.207 189.979C227.648 189.201 228.361 188.812 229.346 188.812C230.186 188.812 230.859 189.086 231.367 189.633C231.879 190.191 232.135 190.947 232.135 191.9C232.135 192.896 231.871 193.68 231.344 194.25C230.82 194.824 230.104 195.111 229.193 195.111C228.244 195.111 227.52 194.799 227.02 194.174C226.508 193.529 226.252 192.57 226.252 191.297C226.252 189.738 226.469 188.592 226.902 187.857C227.398 187.014 228.244 186.564 229.439 186.51L230.072 186.48C230.486 186.461 230.885 186.398 231.268 186.293C231.541 186.219 231.691 186.168 231.719 186.141V187.043C231.48 187.258 230.947 187.383 230.119 187.418L229.475 187.447C228.678 187.482 228.098 187.719 227.734 188.156C227.426 188.531 227.219 189.139 227.113 189.979H227.207ZM236.43 194.203C237.027 194.203 237.488 193.996 237.812 193.582C238.137 193.172 238.299 192.592 238.299 191.842C238.299 191.092 238.137 190.51 237.812 190.096C237.488 189.686 237.027 189.48 236.43 189.48C235.832 189.48 235.371 189.686 235.047 190.096C234.723 190.51 234.561 191.092 234.561 191.842C234.561 192.592 234.723 193.172 235.047 193.582C235.371 193.996 235.832 194.203 236.43 194.203ZM236.43 195.111C235.531 195.111 234.82 194.82 234.297 194.238C233.777 193.652 233.518 192.854 233.518 191.842C233.518 190.826 233.777 190.027 234.297 189.445C234.816 188.863 235.527 188.572 236.43 188.572C237.332 188.572 238.043 188.863 238.562 189.445C239.082 190.027 239.342 190.826 239.342 191.842C239.342 192.854 239.082 193.652 238.562 194.238C238.039 194.82 237.328 195.111 236.43 195.111ZM245.377 189.527H243.326V195H242.318V189.527H240.268V188.684H245.377V189.527ZM248.74 194.227C249.26 194.227 249.689 194.076 250.029 193.775C250.373 193.475 250.545 193.098 250.545 192.645V192.064L248.846 192.176C247.924 192.238 247.463 192.582 247.463 193.207C247.463 193.523 247.584 193.773 247.826 193.957C248.061 194.137 248.365 194.227 248.74 194.227ZM248.553 195.111C247.932 195.111 247.424 194.941 247.029 194.602C246.623 194.258 246.42 193.801 246.42 193.23C246.42 192.668 246.619 192.227 247.018 191.906C247.416 191.586 247.984 191.404 248.723 191.361L250.545 191.25V190.676C250.545 189.871 250.068 189.469 249.115 189.469C248.314 189.469 247.84 189.73 247.691 190.254H246.672C246.738 189.75 247 189.344 247.457 189.035C247.91 188.727 248.475 188.572 249.15 188.572C249.916 188.572 250.51 188.758 250.932 189.129C251.346 189.5 251.553 190.016 251.553 190.676V195H250.592V194.068H250.498C250.076 194.764 249.428 195.111 248.553 195.111ZM261.209 190.617C261.123 190.285 260.945 190.018 260.676 189.814C260.379 189.592 260.014 189.48 259.58 189.48C259.014 189.48 258.562 189.691 258.227 190.113C257.895 190.535 257.729 191.104 257.729 191.818C257.729 192.545 257.896 193.125 258.232 193.559C258.568 193.988 259.018 194.203 259.58 194.203C260.471 194.203 261.014 193.834 261.209 193.096H262.229C262.135 193.693 261.861 194.174 261.408 194.537C260.932 194.92 260.324 195.111 259.586 195.111C258.699 195.111 257.994 194.814 257.471 194.221C256.947 193.623 256.686 192.822 256.686 191.818C256.686 190.834 256.947 190.047 257.471 189.457C257.994 188.867 258.697 188.572 259.58 188.572C260.318 188.572 260.93 188.771 261.414 189.17C261.863 189.545 262.135 190.027 262.229 190.617H261.209ZM214.627 208.203C215.232 208.203 215.701 208.002 216.033 207.6C216.361 207.197 216.525 206.631 216.525 205.9C216.525 205.205 216.361 204.668 216.033 204.289C215.701 203.906 215.232 203.715 214.627 203.715C214.021 203.715 213.553 203.906 213.221 204.289C212.893 204.668 212.729 205.205 212.729 205.9C212.729 206.631 212.893 207.197 213.221 207.6C213.553 208.002 214.021 208.203 214.627 208.203ZM212.641 203.979C213.082 203.201 213.795 202.812 214.779 202.812C215.619 202.812 216.293 203.086 216.801 203.633C217.312 204.191 217.568 204.947 217.568 205.9C217.568 206.896 217.305 207.68 216.777 208.25C216.254 208.824 215.537 209.111 214.627 209.111C213.678 209.111 212.953 208.799 212.453 208.174C211.941 207.529 211.686 206.57 211.686 205.297C211.686 203.738 211.902 202.592 212.336 201.857C212.832 201.014 213.678 200.564 214.873 200.51L215.506 200.48C215.92 200.461 216.318 200.398 216.701 200.293C216.975 200.219 217.125 200.168 217.152 200.141V201.043C216.914 201.258 216.381 201.383 215.553 201.418L214.908 201.447C214.111 201.482 213.531 201.719 213.168 202.156C212.859 202.531 212.652 203.139 212.547 203.979H212.641ZM219.572 211.291C219.412 211.291 219.262 211.279 219.121 211.256V210.395C219.223 210.414 219.363 210.424 219.543 210.424C219.832 210.424 220.064 210.346 220.24 210.189C220.416 210.029 220.57 209.76 220.703 209.381L220.82 209.006L218.482 202.684H219.572L221.307 207.881H221.4L223.129 202.684H224.201L221.734 209.387C221.465 210.117 221.178 210.617 220.873 210.887C220.564 211.156 220.131 211.291 219.572 211.291ZM227.811 206.615L226.311 209H225.168L227.33 205.842L225.145 202.684H226.346L227.846 205.033H227.939L229.422 202.684H230.564L228.42 205.801L230.594 209H229.398L227.904 206.615H227.811ZM233.09 203.527V209H232.082V202.684H236.125V203.527H233.09ZM239.436 208.227C239.955 208.227 240.385 208.076 240.725 207.775C241.068 207.475 241.24 207.098 241.24 206.645V206.064L239.541 206.176C238.619 206.238 238.158 206.582 238.158 207.207C238.158 207.523 238.279 207.773 238.521 207.957C238.756 208.137 239.061 208.227 239.436 208.227ZM239.248 209.111C238.627 209.111 238.119 208.941 237.725 208.602C237.318 208.258 237.115 207.801 237.115 207.23C237.115 206.668 237.314 206.227 237.713 205.906C238.111 205.586 238.68 205.404 239.418 205.361L241.24 205.25V204.676C241.24 203.871 240.764 203.469 239.811 203.469C239.01 203.469 238.535 203.73 238.387 204.254H237.367C237.434 203.75 237.695 203.344 238.152 203.035C238.605 202.727 239.17 202.572 239.846 202.572C240.611 202.572 241.205 202.758 241.627 203.129C242.041 203.5 242.248 204.016 242.248 204.676V209H241.287V208.068H241.193C240.771 208.764 240.123 209.111 239.248 209.111ZM245.822 206.229C245.752 207.166 245.59 207.854 245.336 208.291C245.043 208.799 244.586 209.053 243.965 209.053C243.82 209.053 243.697 209.031 243.596 208.988V208.062C243.689 208.094 243.795 208.109 243.912 208.109C244.209 208.109 244.436 207.938 244.592 207.594C244.729 207.293 244.818 206.83 244.861 206.205L245.107 202.684H249.238V209H248.23V203.527H246.021L245.822 206.229ZM255.818 203.527H253.768V209H252.76V203.527H250.709V202.684H255.818V203.527ZM259.58 203.463C259.076 203.463 258.662 203.633 258.338 203.973C258.014 204.312 257.832 204.762 257.793 205.32H261.273C261.262 204.762 261.102 204.312 260.793 203.973C260.484 203.633 260.08 203.463 259.58 203.463ZM262.252 207.365C262.1 207.912 261.791 208.338 261.326 208.643C260.857 208.955 260.279 209.111 259.592 209.111C258.717 209.111 258.023 208.816 257.512 208.227C257 207.641 256.744 206.848 256.744 205.848C256.744 204.852 257.002 204.057 257.518 203.463C258.033 202.869 258.725 202.572 259.592 202.572C260.443 202.572 261.113 202.855 261.602 203.422C262.09 203.988 262.334 204.764 262.334 205.748V206.135H257.793V206.182C257.82 206.807 257.996 207.303 258.32 207.67C258.648 208.037 259.08 208.221 259.615 208.221C260.432 208.221 260.975 207.936 261.244 207.365H262.252ZM267.104 202.572C267.908 202.572 268.553 202.869 269.037 203.463C269.518 204.057 269.758 204.85 269.758 205.842C269.758 206.83 269.516 207.621 269.031 208.215C268.547 208.812 267.904 209.111 267.104 209.111C266.154 209.111 265.496 208.758 265.129 208.051H265.035V211.109H264.027V202.684H264.988V203.738H265.082C265.285 203.375 265.564 203.09 265.92 202.883C266.279 202.676 266.674 202.572 267.104 202.572ZM266.863 208.203C267.441 208.203 267.895 207.994 268.223 207.576C268.551 207.158 268.715 206.58 268.715 205.842C268.715 205.104 268.551 204.525 268.223 204.107C267.898 203.689 267.447 203.48 266.869 203.48C266.299 203.48 265.846 203.691 265.51 204.113C265.174 204.539 265.006 205.115 265.006 205.842C265.006 206.564 265.174 207.139 265.51 207.564C265.842 207.99 266.293 208.203 266.863 208.203ZM271.457 209V202.684H272.465V207.395H272.559L275.764 202.684H276.771V209H275.764V204.289H275.67L272.465 209H271.457ZM281.307 203.463C280.803 203.463 280.389 203.633 280.064 203.973C279.74 204.312 279.559 204.762 279.52 205.32H283C282.988 204.762 282.828 204.312 282.52 203.973C282.211 203.633 281.807 203.463 281.307 203.463ZM283.979 207.365C283.826 207.912 283.518 208.338 283.053 208.643C282.584 208.955 282.006 209.111 281.318 209.111C280.443 209.111 279.75 208.816 279.238 208.227C278.727 207.641 278.471 206.848 278.471 205.848C278.471 204.852 278.729 204.057 279.244 203.463C279.76 202.869 280.451 202.572 281.318 202.572C282.17 202.572 282.84 202.855 283.328 203.422C283.816 203.988 284.061 204.764 284.061 205.748V206.135H279.52V206.182C279.547 206.807 279.723 207.303 280.047 207.67C280.375 208.037 280.807 208.221 281.342 208.221C282.158 208.221 282.701 207.936 282.971 207.365H283.979ZM285.754 209V202.684H286.762V207.395H286.855L290.061 202.684H291.068V209H290.061V204.289H289.967L286.762 209H285.754ZM287.201 199.883C287.201 200.219 287.299 200.504 287.494 200.738C287.697 200.988 287.963 201.113 288.291 201.113C288.623 201.113 288.893 200.988 289.1 200.738C289.295 200.504 289.393 200.219 289.393 199.883H290.307C290.307 200.434 290.121 200.891 289.75 201.254C289.375 201.621 288.889 201.805 288.291 201.805C287.697 201.805 287.213 201.621 286.838 201.254C286.471 200.895 286.287 200.438 286.287 199.883H287.201Z" fill="white"/>
<path d="M144.994 256.383C144.494 256.383 144.072 256.211 143.729 255.867C143.385 255.523 143.213 255.102 143.213 254.602C143.213 254.102 143.385 253.68 143.729 253.336C144.072 252.992 144.494 252.82 144.994 252.82C145.494 252.82 145.916 252.992 146.26 253.336C146.604 253.68 146.775 254.102 146.775 254.602C146.775 255.102 146.604 255.523 146.26 255.867C145.916 256.211 145.494 256.383 144.994 256.383ZM158.688 249.346C159.887 249.346 160.832 249.744 161.523 250.541C162.211 251.334 162.555 252.41 162.555 253.77C162.555 255.129 162.213 256.205 161.529 256.998C160.834 257.799 159.887 258.199 158.688 258.199C157.48 258.199 156.529 257.799 155.834 256.998C155.146 256.205 154.803 255.129 154.803 253.77C154.803 252.41 155.152 251.332 155.852 250.535C156.547 249.742 157.492 249.346 158.688 249.346ZM158.688 250.318C157.828 250.318 157.146 250.629 156.643 251.25C156.139 251.871 155.887 252.711 155.887 253.77C155.887 254.828 156.135 255.666 156.631 256.283C157.131 256.912 157.816 257.227 158.688 257.227C159.551 257.227 160.232 256.912 160.732 256.283C161.225 255.662 161.471 254.824 161.471 253.77C161.471 252.707 161.223 251.867 160.727 251.25C160.23 250.629 159.551 250.318 158.688 250.318ZM167.002 257.203C167.607 257.203 168.076 257.002 168.408 256.6C168.736 256.197 168.9 255.631 168.9 254.9C168.9 254.205 168.736 253.668 168.408 253.289C168.076 252.906 167.607 252.715 167.002 252.715C166.396 252.715 165.928 252.906 165.596 253.289C165.268 253.668 165.104 254.205 165.104 254.9C165.104 255.631 165.268 256.197 165.596 256.6C165.928 257.002 166.396 257.203 167.002 257.203ZM165.016 252.979C165.457 252.201 166.17 251.812 167.154 251.812C167.994 251.812 168.668 252.086 169.176 252.633C169.688 253.191 169.943 253.947 169.943 254.9C169.943 255.896 169.68 256.68 169.152 257.25C168.629 257.824 167.912 258.111 167.002 258.111C166.053 258.111 165.328 257.799 164.828 257.174C164.316 256.529 164.061 255.57 164.061 254.297C164.061 252.738 164.277 251.592 164.711 250.857C165.207 250.014 166.053 249.564 167.248 249.51L167.881 249.48C168.295 249.461 168.693 249.398 169.076 249.293C169.35 249.219 169.5 249.168 169.527 249.141V250.043C169.289 250.258 168.756 250.383 167.928 250.418L167.283 250.447C166.486 250.482 165.906 250.719 165.543 251.156C165.234 251.531 165.027 252.139 164.922 252.979H165.016ZM171.637 258V251.684H172.861L175.123 256.582H175.217L177.484 251.684H178.662V258H177.648V253.506H177.537L175.539 257.824H174.754L172.756 253.506H172.645V258H171.637ZM183.197 252.463C182.693 252.463 182.279 252.633 181.955 252.973C181.631 253.312 181.449 253.762 181.41 254.32H184.891C184.879 253.762 184.719 253.312 184.41 252.973C184.102 252.633 183.697 252.463 183.197 252.463ZM185.869 256.365C185.717 256.912 185.408 257.338 184.943 257.643C184.475 257.955 183.896 258.111 183.209 258.111C182.334 258.111 181.641 257.816 181.129 257.227C180.617 256.641 180.361 255.848 180.361 254.848C180.361 253.852 180.619 253.057 181.135 252.463C181.65 251.869 182.342 251.572 183.209 251.572C184.061 251.572 184.73 251.855 185.219 252.422C185.707 252.988 185.951 253.764 185.951 254.748V255.135H181.41V255.182C181.438 255.807 181.613 256.303 181.938 256.67C182.266 257.037 182.697 257.221 183.232 257.221C184.049 257.221 184.592 256.936 184.861 256.365H185.869ZM187.645 251.684H188.652V254.297H191.863V251.684H192.871V258H191.863V255.141H188.652V258H187.645V251.684ZM159.016 266.527H156.619L156.42 269.229C156.354 270.08 156.18 270.691 155.898 271.062V271.156H159.016V266.527ZM154.193 273.67V271.156H154.721C155.15 270.875 155.4 270.225 155.471 269.205L155.717 265.684H160.023V271.156H161.031V273.67H160.082V272H155.143V273.67H154.193ZM164.957 271.203C165.555 271.203 166.016 270.996 166.34 270.582C166.664 270.172 166.826 269.592 166.826 268.842C166.826 268.092 166.664 267.51 166.34 267.096C166.016 266.686 165.555 266.48 164.957 266.48C164.359 266.48 163.898 266.686 163.574 267.096C163.25 267.51 163.088 268.092 163.088 268.842C163.088 269.592 163.25 270.172 163.574 270.582C163.898 270.996 164.359 271.203 164.957 271.203ZM164.957 272.111C164.059 272.111 163.348 271.82 162.824 271.238C162.305 270.652 162.045 269.854 162.045 268.842C162.045 267.826 162.305 267.027 162.824 266.445C163.344 265.863 164.055 265.572 164.957 265.572C165.859 265.572 166.57 265.863 167.09 266.445C167.609 267.027 167.869 267.826 167.869 268.842C167.869 269.854 167.609 270.652 167.09 271.238C166.566 271.82 165.855 272.111 164.957 272.111ZM170.846 268.326L173.348 265.684H174.572L171.678 268.66L174.684 272H173.377L170.846 269.123H170.57V272H169.562V265.684H170.57V268.326H170.846ZM176.518 274.291C176.357 274.291 176.207 274.279 176.066 274.256V273.395C176.168 273.414 176.309 273.424 176.488 273.424C176.777 273.424 177.01 273.346 177.186 273.189C177.361 273.029 177.516 272.76 177.648 272.381L177.766 272.006L175.428 265.684H176.518L178.252 270.881H178.346L180.074 265.684H181.146L178.68 272.387C178.41 273.117 178.123 273.617 177.818 273.887C177.51 274.156 177.076 274.291 176.518 274.291ZM182.605 272V265.684H183.83L186.092 270.582H186.186L188.453 265.684H189.631V272H188.617V267.506H188.506L186.508 271.824H185.723L183.725 267.506H183.613V272H182.605ZM194.166 266.463C193.662 266.463 193.248 266.633 192.924 266.973C192.6 267.312 192.418 267.762 192.379 268.32H195.859C195.848 267.762 195.688 267.312 195.379 266.973C195.07 266.633 194.666 266.463 194.166 266.463ZM196.838 270.365C196.686 270.912 196.377 271.338 195.912 271.643C195.443 271.955 194.865 272.111 194.178 272.111C193.303 272.111 192.609 271.816 192.098 271.227C191.586 270.641 191.33 269.848 191.33 268.848C191.33 267.852 191.588 267.057 192.104 266.463C192.619 265.869 193.311 265.572 194.178 265.572C195.029 265.572 195.699 265.855 196.188 266.422C196.676 266.988 196.92 267.764 196.92 268.748V269.135H192.379V269.182C192.406 269.807 192.582 270.303 192.906 270.67C193.234 271.037 193.666 271.221 194.201 271.221C195.018 271.221 195.561 270.936 195.83 270.365H196.838ZM198.613 265.684H199.621V268.297H202.832V265.684H203.84V272H202.832V269.141H199.621V272H198.613V265.684ZM210.42 266.527H208.369V272H207.361V266.527H205.311V265.684H210.42V266.527ZM213.783 271.227C214.303 271.227 214.732 271.076 215.072 270.775C215.416 270.475 215.588 270.098 215.588 269.645V269.064L213.889 269.176C212.967 269.238 212.506 269.582 212.506 270.207C212.506 270.523 212.627 270.773 212.869 270.957C213.104 271.137 213.408 271.227 213.783 271.227ZM213.596 272.111C212.975 272.111 212.467 271.941 212.072 271.602C211.666 271.258 211.463 270.801 211.463 270.23C211.463 269.668 211.662 269.227 212.061 268.906C212.459 268.586 213.027 268.404 213.766 268.361L215.588 268.25V267.676C215.588 266.871 215.111 266.469 214.158 266.469C213.357 266.469 212.883 266.73 212.734 267.254H211.715C211.781 266.75 212.043 266.344 212.5 266.035C212.953 265.727 213.518 265.572 214.193 265.572C214.959 265.572 215.553 265.758 215.975 266.129C216.389 266.5 216.596 267.016 216.596 267.676V272H215.635V271.068H215.541C215.119 271.764 214.471 272.111 213.596 272.111ZM218.652 272V265.684H219.877L222.139 270.582H222.232L224.5 265.684H225.678V272H224.664V267.506H224.553L222.555 271.824H221.77L219.771 267.506H219.66V272H218.652ZM227.688 272V265.684H228.695V270.395H228.789L231.994 265.684H233.002V272H231.994V267.289H231.9L228.695 272H227.688Z" fill="white"/>
</svg>
