<svg width="25" height="18" viewBox="0 0 25 18" fill="none" xmlns="http://www.w3.org/2000/svg">
<path d="M14.375 0H10.625C9.93477 0 9.375 0.559766 9.375 1.25V5C9.375 5.69023 9.93477 6.25 10.625 6.25H14.375C15.0652 6.25 15.625 5.69023 15.625 5V1.25C15.625 0.559766 15.0652 0 14.375 0ZM8.125 2.1875H4.81445C4.44336 1.27187 3.54844 0.625 2.5 0.625C1.11953 0.625 0 1.74414 0 3.125C0 4.50586 1.11953 5.625 2.5 5.625C3.54844 5.625 4.44336 4.97813 4.81445 4.0625H7.92891C5.76602 5.33281 4.18438 7.47344 3.65 10H5.57969C6.02109 8.37461 7.01602 6.98398 8.35469 6.03281C8.21016 5.71719 8.125 5.36914 8.125 5V2.1875ZM6.25 11.25H2.5C1.80977 11.25 1.25 11.8098 1.25 12.5V16.25C1.25 16.9402 1.80977 17.5 2.5 17.5H6.25C6.94023 17.5 7.5 16.9402 7.5 16.25V12.5C7.5 11.8098 6.94023 11.25 6.25 11.25ZM22.5 0.625C21.4516 0.625 20.5566 1.27187 20.1855 2.1875H16.875V5C16.875 5.36914 16.7895 5.71719 16.6453 6.03281C17.984 6.98398 18.9789 8.37461 19.4203 10H21.35C20.8156 7.47344 19.234 5.33281 17.0711 4.0625H20.1855C20.5566 4.97813 21.4516 5.625 22.5 5.625C23.8805 5.625 25 4.50586 25 3.125C25 1.74414 23.8805 0.625 22.5 0.625ZM22.5 11.25H18.75C18.0598 11.25 17.5 11.8098 17.5 12.5V16.25C17.5 16.9402 18.0598 17.5 18.75 17.5H22.5C23.1902 17.5 23.75 16.9402 23.75 16.25V12.5C23.75 11.8098 23.1902 11.25 22.5 11.25Z" fill="#006CE5"/>
</svg>
