<svg width="25" height="20" viewBox="0 0 25 20" fill="none" xmlns="http://www.w3.org/2000/svg">
<path d="M10 13.125H9.99922C9.99922 12.493 10.0516 12.784 6.67695 6.03477C5.9875 4.65625 4.01328 4.65352 3.32266 6.03477C-0.080469 12.8418 0.00078125 12.5129 0.00078125 13.125H0C0 14.8508 2.23867 16.25 5 16.25C7.76133 16.25 10 14.8508 10 13.125ZM5 6.875L7.8125 12.5H2.1875L5 6.875ZM24.9992 13.125C24.9992 12.493 25.0516 12.784 21.677 6.03477C20.9875 4.65625 19.0133 4.65352 18.3227 6.03477C14.9195 12.8418 15.0008 12.5129 15.0008 13.125H15C15 14.8508 17.2387 16.25 20 16.25C22.7613 16.25 25 14.8508 25 13.125H24.9992ZM17.1875 12.5L20 6.875L22.8125 12.5H17.1875ZM20.625 17.5H13.75V5.98633C14.6684 5.58437 15.3578 4.75664 15.5621 3.75H20.625C20.9703 3.75 21.25 3.47031 21.25 3.125V1.875C21.25 1.52969 20.9703 1.25 20.625 1.25H14.9859C14.4156 0.495313 13.5191 0 12.5 0C11.4809 0 10.5844 0.495313 10.0141 1.25H4.375C4.02969 1.25 3.75 1.52969 3.75 1.875V3.125C3.75 3.47031 4.02969 3.75 4.375 3.75H9.43789C9.64219 4.75625 10.3313 5.58437 11.25 5.98633V17.5H4.375C4.02969 17.5 3.75 17.7797 3.75 18.125V19.375C3.75 19.7203 4.02969 20 4.375 20H20.625C20.9703 20 21.25 19.7203 21.25 19.375V18.125C21.25 17.7797 20.9703 17.5 20.625 17.5Z" fill="#006CE5"/>
</svg>
