<svg width="25" height="20" viewBox="0 0 25 20" fill="none" xmlns="http://www.w3.org/2000/svg">
<g clip-path="url(#clip0_1_1181)">
<path d="M22.8672 5.43532L12.0438 0.08792C11.9265 0.0300824 11.7974 0 11.6667 0C11.5359 0 11.4069 0.0300824 11.2896 0.08792L0.46875 5.43532C0.328823 5.50339 0.210752 5.60929 0.127907 5.74101C0.0450629 5.87273 0.000754568 6.02502 0 6.18063V19.1666C0.000613693 19.2767 0.0229153 19.3856 0.0656305 19.487C0.108346 19.5885 0.170637 19.6806 0.248946 19.758C0.327254 19.8353 0.420044 19.8965 0.522014 19.9381C0.623984 19.9796 0.733135 20.0006 0.843229 19.9999H22.4901C22.6002 20.0006 22.7094 19.9796 22.8113 19.9381C22.9133 19.8965 23.0061 19.8353 23.0844 19.758C23.1627 19.6806 23.225 19.5885 23.2677 19.487C23.3104 19.3856 23.3327 19.2767 23.3333 19.1666V6.18063C23.3328 6.0253 23.2889 5.8732 23.2065 5.74151C23.1242 5.60981 23.0066 5.50376 22.8672 5.43532ZM11.6667 1.765L20.6771 6.215L11.526 10.7348L2.51563 6.2848L11.6667 1.765Z" fill="#0065F6"/>
</g>
<defs>
<clipPath id="clip0_1_1181">
<rect width="24.2484" height="20" fill="white"/>
</clipPath>
</defs>
</svg>
