<svg width="21" height="20" viewBox="0 0 21 20" fill="none" xmlns="http://www.w3.org/2000/svg">
<g clip-path="url(#clip0_1_1190)">
<path d="M11.0252 2C7.08188 2 3.88232 4.87991 3.88232 8.42857C3.88232 14.1429 11.0252 22 11.0252 22C11.0252 22 18.168 14.1429 18.168 8.42857C18.168 4.87991 14.9685 2 11.0252 2ZM11.0252 12C10.4601 12 9.90769 11.8324 9.43784 11.5185C8.96798 11.2045 8.60178 10.7583 8.38553 10.2362C8.16927 9.71416 8.11269 9.13969 8.22294 8.58546C8.33318 8.03123 8.6053 7.52213 9.00488 7.12255C9.40445 6.72297 9.91355 6.45086 10.4678 6.34061C11.022 6.23037 11.5965 6.28695 12.1186 6.5032C12.6406 6.71945 13.0869 7.08566 13.4008 7.55551C13.7148 8.02537 13.8823 8.57777 13.8823 9.14286C13.8815 9.90036 13.5802 10.6266 13.0446 11.1622C12.5089 11.6979 11.7827 11.9992 11.0252 12Z" fill="#0065F6"/>
</g>
<defs>
<clipPath id="clip0_1_1190">
<rect width="20.7843" height="20" fill="white"/>
</clipPath>
</defs>
</svg>
