<svg width="21" height="20" viewBox="0 0 21 20" fill="none" xmlns="http://www.w3.org/2000/svg">
<g clip-path="url(#clip0_1_1183)">
<path d="M16.0268 19.9996C15.1554 19.9996 13.9313 19.6844 12.0982 18.6603C9.86921 17.4103 8.1451 16.2563 5.92813 14.0451C3.79063 11.909 2.75046 10.5259 1.29465 7.87682C-0.349989 4.88575 -0.0696323 3.31789 0.243761 2.6478C0.616975 1.84691 1.16787 1.36789 1.87992 0.892443C2.28436 0.627459 2.71236 0.400308 3.15849 0.213871C3.20314 0.194675 3.24465 0.176372 3.28171 0.159854C3.50269 0.0603001 3.83751 -0.0901463 4.26162 0.0705679C4.54465 0.176818 4.79733 0.394229 5.19287 0.784854C6.00403 1.58485 7.11251 3.36655 7.52144 4.24155C7.79599 4.83128 7.97769 5.22057 7.97814 5.65718C7.97814 6.16834 7.72099 6.56253 7.40894 6.98798C7.35046 7.06789 7.29242 7.14423 7.23617 7.21834C6.89644 7.66476 6.82189 7.79378 6.87099 8.02414C6.97055 8.48709 7.71296 9.86521 8.93305 11.0826C10.1531 12.3 11.4915 12.9956 11.9563 13.0947C12.1964 13.146 12.3281 13.0683 12.7888 12.7165C12.8549 12.6661 12.9228 12.6139 12.9938 12.5616C13.4697 12.2076 13.8455 11.9572 14.3447 11.9572H14.3473C14.7817 11.9572 15.1536 12.1456 15.7697 12.4563C16.5732 12.8616 18.4085 13.9558 19.2134 14.7679C19.6049 15.1625 19.8232 15.4143 19.9299 15.6969C20.0906 16.1224 19.9393 16.4558 19.8406 16.6791C19.8241 16.7161 19.8058 16.7567 19.7866 16.8018C19.5987 17.2472 19.3702 17.6743 19.104 18.0777C18.6295 18.7875 18.1487 19.3371 17.346 19.7107C16.9338 19.9057 16.4827 20.0045 16.0268 19.9996Z" fill="#0065F6"/>
</g>
<defs>
<clipPath id="clip0_1_1183">
<rect width="20.7843" height="20" fill="white"/>
</clipPath>
</defs>
</svg>
