<svg width="35" height="35" viewBox="0 0 35 35" fill="none" xmlns="http://www.w3.org/2000/svg">
<path d="M27.125 15.75C22.7719 15.75 19.25 19.2719 19.25 23.625C19.25 27.9781 22.7719 31.5 27.125 31.5C31.4781 31.5 35 27.9781 35 23.625C35 19.2719 31.4781 15.75 27.125 15.75ZM30.625 23.9695C30.625 24.2594 30.3844 24.5 30.0945 24.5H26.7805C26.4906 24.5 26.25 24.2594 26.25 23.9695V19.7805C26.25 19.4906 26.4906 19.25 26.7805 19.25H27.4695C27.7594 19.25 28 19.4906 28 19.7805V22.75H30.0945C30.3844 22.75 30.625 22.9906 30.625 23.2805V23.9695ZM17.5 23.625C17.5 22.1047 17.8664 20.6664 18.4953 19.3867C18.0578 19.3047 17.6094 19.25 17.15 19.25H16.2367C15.0227 19.8078 13.6719 20.125 12.25 20.125C10.8281 20.125 9.48281 19.8078 8.26328 19.25H7.35C3.29219 19.25 0 22.5422 0 26.6V28.875C0 30.3242 1.17578 31.5 2.625 31.5H21.607C19.1297 29.7555 17.5 26.8789 17.5 23.625ZM12.25 17.5C16.1164 17.5 19.25 14.3664 19.25 10.5C19.25 6.63359 16.1164 3.5 12.25 3.5C8.38359 3.5 5.25 6.63359 5.25 10.5C5.25 14.3664 8.38359 17.5 12.25 17.5Z" fill="black"/>
</svg>
